<?xml version="1.0" encoding="UTF-8" standalone="no"?>
<!DOCTYPE svg PUBLIC "-//W3C//DTD SVG 1.1//EN"
 "http://www.w3.org/Graphics/SVG/1.1/DTD/svg11.dtd">
<!-- Generated by graphviz version 13.1.2 (20250808.2320)
 -->
<!-- Title: X_AME_FG_Scaling Pages: 1 -->
<svg width="641pt" height="646pt"
 viewBox="0.00 0.00 641.00 646.00" xmlns="http://www.w3.org/2000/svg" xmlns:xlink="http://www.w3.org/1999/xlink">
<g id="graph0" class="graph" transform="scale(1 1) rotate(0) translate(4 641.5)">
<title>X_AME_FG_Scaling</title>
<polygon fill="white" stroke="none" points="-4,4 -4,-641.5 637.12,-641.5 637.12,4 -4,4"/>
<text xml:space="preserve" text-anchor="middle" x="316.56" y="-622.1" font-family="Times New Roman,serif" font-size="12.00">X&#45;AME Fine&#45;Grain Scaling Pipeline (with Partial Peek &amp; Double Buffering)</text>
<g id="clust1" class="cluster">
<title>cluster_scale</title>
<path fill="none" stroke="#cbd5e1" d="M223.62,-357.25C223.62,-357.25 515.62,-357.25 515.62,-357.25 521.62,-357.25 527.62,-363.25 527.62,-369.25 527.62,-369.25 527.62,-595.25 527.62,-595.25 527.62,-601.25 521.62,-607.25 515.62,-607.25 515.62,-607.25 223.62,-607.25 223.62,-607.25 217.62,-607.25 211.62,-601.25 211.62,-595.25 211.62,-595.25 211.62,-369.25 211.62,-369.25 211.62,-363.25 217.62,-357.25 223.62,-357.25"/>
<text xml:space="preserve" text-anchor="middle" x="369.62" y="-591.85" font-family="Times New Roman,serif" font-size="12.00">Scale Path (Sideband)</text>
<text xml:space="preserve" text-anchor="middle" x="369.62" y="-577.6" font-family="Times New Roman,serif" font-size="12.00">*peek/commit hides latency; 1 Tile / 1 Clock maintained*</text>
</g>
<g id="clust2" class="cluster">
<title>cluster_mac</title>
<path fill="none" stroke="#cbd5e1" d="M94.62,-163C94.62,-163 281.62,-163 281.62,-163 287.62,-163 293.62,-169 293.62,-175 293.62,-175 293.62,-237.75 293.62,-237.75 293.62,-243.75 287.62,-249.75 281.62,-249.75 281.62,-249.75 94.62,-249.75 94.62,-249.75 88.62,-249.75 82.62,-243.75 82.62,-237.75 82.62,-237.75 82.62,-175 82.62,-175 82.62,-169 88.62,-163 94.62,-163"/>
<text xml:space="preserve" text-anchor="middle" x="188.12" y="-234.35" font-family="Times New Roman,serif" font-size="12.00">Dequant + Multiply&#45;Accumulate Pipeline</text>
</g>
<!-- SA_next -->
<g id="node1" class="node">
<title>SA_next</title>
<path fill="#e0f2fe" stroke="black" d="M464.75,-562.75C464.75,-562.75 434.5,-562.75 434.5,-562.75 428.5,-562.75 422.5,-556.75 422.5,-550.75 422.5,-550.75 422.5,-538.75 422.5,-538.75 422.5,-532.75 428.5,-526.75 434.5,-526.75 434.5,-526.75 464.75,-526.75 464.75,-526.75 470.75,-526.75 476.75,-532.75 476.75,-538.75 476.75,-538.75 476.75,-550.75 476.75,-550.75 476.75,-556.75 470.75,-562.75 464.75,-562.75"/>
<text xml:space="preserve" text-anchor="middle" x="449.62" y="-541.05" font-family="Times New Roman,serif" font-size="11.00">SA_next</text>
</g>
<!-- SA_pref -->
<g id="node3" class="node">
<title>SA_pref</title>
<path fill="#dbeafe" stroke="black" d="M507.5,-489.75C507.5,-489.75 391.75,-489.75 391.75,-489.75 385.75,-489.75 379.75,-483.75 379.75,-477.75 379.75,-477.75 379.75,-465.75 379.75,-465.75 379.75,-459.75 385.75,-453.75 391.75,-453.75 391.75,-453.75 507.5,-453.75 507.5,-453.75 513.5,-453.75 519.5,-459.75 519.5,-465.75 519.5,-465.75 519.5,-477.75 519.5,-477.75 519.5,-483.75 513.5,-489.75 507.5,-489.75"/>
<text xml:space="preserve" text-anchor="middle" x="449.62" y="-468.05" font-family="Times New Roman,serif" font-size="11.00">SA_prefetch / peek (1×128)</text>
</g>
<!-- SA_next&#45;&gt;SA_pref -->
<g id="edge1" class="edge">
<title>SA_next&#45;&gt;SA_pref</title>
<path fill="none" stroke="black" d="M449.62,-526.56C449.62,-518.98 449.62,-509.85 449.62,-501.29"/>
<polygon fill="black" stroke="black" points="453.13,-501.29 449.63,-491.29 446.13,-501.29 453.13,-501.29"/>
</g>
<!-- SW_next -->
<g id="node2" class="node">
<title>SW_next</title>
<path fill="#e0f2fe" stroke="black" d="M306.88,-562.75C306.88,-562.75 274.38,-562.75 274.38,-562.75 268.38,-562.75 262.38,-556.75 262.38,-550.75 262.38,-550.75 262.38,-538.75 262.38,-538.75 262.38,-532.75 268.38,-526.75 274.38,-526.75 274.38,-526.75 306.88,-526.75 306.88,-526.75 312.88,-526.75 318.88,-532.75 318.88,-538.75 318.88,-538.75 318.88,-550.75 318.88,-550.75 318.88,-556.75 312.88,-562.75 306.88,-562.75"/>
<text xml:space="preserve" text-anchor="middle" x="290.62" y="-541.05" font-family="Times New Roman,serif" font-size="11.00">SW_next</text>
</g>
<!-- SW_pref -->
<g id="node4" class="node">
<title>SW_pref</title>
<path fill="#dbeafe" stroke="black" d="M349.62,-489.75C349.62,-489.75 231.62,-489.75 231.62,-489.75 225.62,-489.75 219.62,-483.75 219.62,-477.75 219.62,-477.75 219.62,-465.75 219.62,-465.75 219.62,-459.75 225.62,-453.75 231.62,-453.75 231.62,-453.75 349.62,-453.75 349.62,-453.75 355.62,-453.75 361.62,-459.75 361.62,-465.75 361.62,-465.75 361.62,-477.75 361.62,-477.75 361.62,-483.75 355.62,-489.75 349.62,-489.75"/>
<text xml:space="preserve" text-anchor="middle" x="290.62" y="-468.05" font-family="Times New Roman,serif" font-size="11.00">SW_prefetch / peek (1×128)</text>
</g>
<!-- SW_next&#45;&gt;SW_pref -->
<g id="edge3" class="edge">
<title>SW_next&#45;&gt;SW_pref</title>
<path fill="none" stroke="black" d="M290.62,-526.56C290.62,-518.98 290.62,-509.85 290.62,-501.29"/>
<polygon fill="black" stroke="black" points="294.13,-501.29 290.63,-491.29 287.13,-501.29 294.13,-501.29"/>
</g>
<!-- SA_cur -->
<g id="node5" class="node">
<title>SA_cur</title>
<path fill="#e0f2fe" stroke="black" d="M502.12,-401.25C502.12,-401.25 459.12,-401.25 459.12,-401.25 453.12,-401.25 447.12,-395.25 447.12,-389.25 447.12,-389.25 447.12,-377.25 447.12,-377.25 447.12,-371.25 453.12,-365.25 459.12,-365.25 459.12,-365.25 502.12,-365.25 502.12,-365.25 508.12,-365.25 514.12,-371.25 514.12,-377.25 514.12,-377.25 514.12,-389.25 514.12,-389.25 514.12,-395.25 508.12,-401.25 502.12,-401.25"/>
<text xml:space="preserve" text-anchor="middle" x="480.62" y="-379.55" font-family="Times New Roman,serif" font-size="11.00">SA_current</text>
</g>
<!-- SA_pref&#45;&gt;SA_cur -->
<g id="edge2" class="edge">
<title>SA_pref&#45;&gt;SA_cur</title>
<path fill="none" stroke="black" d="M455.75,-453.66C459.97,-441.89 465.67,-425.98 470.55,-412.36"/>
<polygon fill="black" stroke="black" points="473.82,-413.62 473.9,-403.02 467.23,-411.26 473.82,-413.62"/>
</g>
<!-- commit -->
<g id="node7" class="node">
<title>commit</title>
<path fill="#ddd6fe" stroke="black" d="M417.12,-401.25C417.12,-401.25 320.12,-401.25 320.12,-401.25 314.12,-401.25 308.12,-395.25 308.12,-389.25 308.12,-389.25 308.12,-377.25 308.12,-377.25 308.12,-371.25 314.12,-365.25 320.12,-365.25 320.12,-365.25 417.12,-365.25 417.12,-365.25 423.12,-365.25 429.12,-371.25 429.12,-377.25 429.12,-377.25 429.12,-389.25 429.12,-389.25 429.12,-395.25 423.12,-401.25 417.12,-401.25"/>
<text xml:space="preserve" text-anchor="middle" x="368.62" y="-386.3" font-family="Times New Roman,serif" font-size="11.00">commit (next→current)</text>
<text xml:space="preserve" text-anchor="middle" x="368.62" y="-372.8" font-family="Times New Roman,serif" font-size="11.00">[atomic swap: SA/SW]</text>
</g>
<!-- SA_pref&#45;&gt;commit -->
<g id="edge5" class="edge">
<title>SA_pref&#45;&gt;commit</title>
<path fill="none" stroke="#94a3b8" stroke-dasharray="5,2" d="M409.53,-453.31C401.67,-448.5 394.03,-442.66 388.12,-435.75 382.4,-429.06 378.27,-420.51 375.33,-412.31"/>
<polygon fill="#94a3b8" stroke="#94a3b8" points="378.75,-411.53 372.46,-403 372.06,-413.59 378.75,-411.53"/>
<text xml:space="preserve" text-anchor="middle" x="423.38" y="-422.45" font-family="Times New Roman,serif" font-size="14.00">km_progress</text>
</g>
<!-- SW_cur -->
<g id="node6" class="node">
<title>SW_cur</title>
<path fill="#e0f2fe" stroke="black" d="M278.25,-401.25C278.25,-401.25 233,-401.25 233,-401.25 227,-401.25 221,-395.25 221,-389.25 221,-389.25 221,-377.25 221,-377.25 221,-371.25 227,-365.25 233,-365.25 233,-365.25 278.25,-365.25 278.25,-365.25 284.25,-365.25 290.25,-371.25 290.25,-377.25 290.25,-377.25 290.25,-389.25 290.25,-389.25 290.25,-395.25 284.25,-401.25 278.25,-401.25"/>
<text xml:space="preserve" text-anchor="middle" x="255.62" y="-379.55" font-family="Times New Roman,serif" font-size="11.00">SW_current</text>
</g>
<!-- SW_pref&#45;&gt;SW_cur -->
<g id="edge4" class="edge">
<title>SW_pref&#45;&gt;SW_cur</title>
<path fill="none" stroke="black" d="M283.71,-453.66C278.9,-441.77 272.38,-425.66 266.83,-411.95"/>
<polygon fill="black" stroke="black" points="270.21,-410.96 263.21,-403 263.72,-413.59 270.21,-410.96"/>
</g>
<!-- SW_pref&#45;&gt;commit -->
<g id="edge6" class="edge">
<title>SW_pref&#45;&gt;commit</title>
<path fill="none" stroke="#94a3b8" stroke-dasharray="5,2" d="M306.04,-453.66C317.29,-441.18 332.73,-424.05 345.46,-409.93"/>
<polygon fill="#94a3b8" stroke="#94a3b8" points="347.87,-412.49 351.97,-402.72 342.67,-407.81 347.87,-412.49"/>
</g>
<!-- deqA -->
<g id="node10" class="node">
<title>deqA</title>
<path fill="#dcfce7" stroke="black" d="M562.5,-312.75C562.5,-312.75 398.75,-312.75 398.75,-312.75 392.75,-312.75 386.75,-306.75 386.75,-300.75 386.75,-300.75 386.75,-288.75 386.75,-288.75 386.75,-282.75 392.75,-276.75 398.75,-276.75 398.75,-276.75 562.5,-276.75 562.5,-276.75 568.5,-276.75 574.5,-282.75 574.5,-288.75 574.5,-288.75 574.5,-300.75 574.5,-300.75 574.5,-306.75 568.5,-312.75 562.5,-312.75"/>
<text xml:space="preserve" text-anchor="middle" x="480.62" y="-297.8" font-family="Times New Roman,serif" font-size="11.00">Dequant + × SA_current</text>
<text xml:space="preserve" text-anchor="middle" x="480.62" y="-284.3" font-family="Times New Roman,serif" font-size="11.00">(FP8→FP16/BF16 + Scaled Activator)</text>
</g>
<!-- SA_cur&#45;&gt;deqA -->
<g id="edge11" class="edge">
<title>SA_cur&#45;&gt;deqA</title>
<path fill="none" stroke="#22c55e" d="M480.62,-365.16C480.62,-353.51 480.62,-337.8 480.62,-324.27"/>
<polygon fill="#22c55e" stroke="#22c55e" points="484.13,-324.61 480.63,-314.61 477.13,-324.61 484.13,-324.61"/>
<text xml:space="preserve" text-anchor="middle" x="507.62" y="-333.95" font-family="Times New Roman,serif" font-size="14.00">scale feed</text>
</g>
<!-- deqB -->
<g id="node11" class="node">
<title>deqB</title>
<path fill="#dcfce7" stroke="black" d="M264.25,-312.75C264.25,-312.75 111,-312.75 111,-312.75 105,-312.75 99,-306.75 99,-300.75 99,-300.75 99,-288.75 99,-288.75 99,-282.75 105,-276.75 111,-276.75 111,-276.75 264.25,-276.75 264.25,-276.75 270.25,-276.75 276.25,-282.75 276.25,-288.75 276.25,-288.75 276.25,-300.75 276.25,-300.75 276.25,-306.75 270.25,-312.75 264.25,-312.75"/>
<text xml:space="preserve" text-anchor="middle" x="187.62" y="-297.8" font-family="Times New Roman,serif" font-size="11.00">Dequant + × SW_current</text>
<text xml:space="preserve" text-anchor="middle" x="187.62" y="-284.3" font-family="Times New Roman,serif" font-size="11.00">(FP8→FP16/BF16 + Scaled Weight)</text>
</g>
<!-- SW_cur&#45;&gt;deqB -->
<g id="edge12" class="edge">
<title>SW_cur&#45;&gt;deqB</title>
<path fill="none" stroke="#22c55e" d="M242.19,-365.16C232.47,-352.8 219.17,-335.88 208.13,-321.83"/>
<polygon fill="#22c55e" stroke="#22c55e" points="211.13,-319.99 202.2,-314.29 205.63,-324.31 211.13,-319.99"/>
<text xml:space="preserve" text-anchor="middle" x="254.72" y="-333.95" font-family="Times New Roman,serif" font-size="14.00">scale feed</text>
</g>
<!-- A_tile -->
<g id="node8" class="node">
<title>A_tile</title>
<path fill="#fef3c7" stroke="black" d="M621.12,-401.25C621.12,-401.25 548.12,-401.25 548.12,-401.25 542.12,-401.25 536.12,-395.25 536.12,-389.25 536.12,-389.25 536.12,-377.25 536.12,-377.25 536.12,-371.25 542.12,-365.25 548.12,-365.25 548.12,-365.25 621.12,-365.25 621.12,-365.25 627.12,-365.25 633.12,-371.25 633.12,-377.25 633.12,-377.25 633.12,-389.25 633.12,-389.25 633.12,-395.25 627.12,-401.25 621.12,-401.25"/>
<text xml:space="preserve" text-anchor="middle" x="584.62" y="-386.3" font-family="Times New Roman,serif" font-size="11.00">A Tile (FP8) 256B</text>
<text xml:space="preserve" text-anchor="middle" x="584.62" y="-372.8" font-family="Times New Roman,serif" font-size="11.00">16×16</text>
</g>
<!-- A_tile&#45;&gt;deqA -->
<g id="edge7" class="edge">
<title>A_tile&#45;&gt;deqA</title>
<path fill="none" stroke="black" d="M571.28,-364.82C562.66,-354.23 550.81,-340.85 538.62,-330.75 533.82,-326.76 528.5,-322.92 523.11,-319.34"/>
<polygon fill="black" stroke="black" points="524.99,-316.39 514.67,-314 521.25,-322.31 524.99,-316.39"/>
</g>
<!-- B_tile -->
<g id="node9" class="node">
<title>B_tile</title>
<path fill="#fef3c7" stroke="black" d="M191.12,-401.25C191.12,-401.25 118.12,-401.25 118.12,-401.25 112.12,-401.25 106.12,-395.25 106.12,-389.25 106.12,-389.25 106.12,-377.25 106.12,-377.25 106.12,-371.25 112.12,-365.25 118.12,-365.25 118.12,-365.25 191.12,-365.25 191.12,-365.25 197.12,-365.25 203.12,-371.25 203.12,-377.25 203.12,-377.25 203.12,-389.25 203.12,-389.25 203.12,-395.25 197.12,-401.25 191.12,-401.25"/>
<text xml:space="preserve" text-anchor="middle" x="154.62" y="-386.3" font-family="Times New Roman,serif" font-size="11.00">B Tile (FP8) 256B</text>
<text xml:space="preserve" text-anchor="middle" x="154.62" y="-372.8" font-family="Times New Roman,serif" font-size="11.00">16×16</text>
</g>
<!-- B_tile&#45;&gt;deqB -->
<g id="edge9" class="edge">
<title>B_tile&#45;&gt;deqB</title>
<path fill="none" stroke="black" d="M161.14,-365.16C165.68,-353.27 171.83,-337.16 177.06,-323.45"/>
<polygon fill="black" stroke="black" points="180.17,-325.11 180.47,-314.51 173.63,-322.61 180.17,-325.11"/>
</g>
<!-- MAC -->
<g id="node12" class="node">
<title>MAC</title>
<path fill="#f1f5f9" stroke="black" d="M221.88,-219.5C221.88,-219.5 153.38,-219.5 153.38,-219.5 147.38,-219.5 141.38,-213.5 141.38,-207.5 141.38,-207.5 141.38,-183 141.38,-183 141.38,-177 147.38,-171 153.38,-171 153.38,-171 221.88,-171 221.88,-171 227.88,-171 233.88,-177 233.88,-183 233.88,-183 233.88,-207.5 233.88,-207.5 233.88,-213.5 227.88,-219.5 221.88,-219.5"/>
<text xml:space="preserve" text-anchor="middle" x="187.62" y="-205.05" font-family="Times New Roman,serif" font-size="11.00">MMACC Core</text>
<text xml:space="preserve" text-anchor="middle" x="187.62" y="-191.55" font-family="Times New Roman,serif" font-size="11.00">(1 Tile / 1 Clock)</text>
<text xml:space="preserve" text-anchor="middle" x="187.62" y="-178.05" font-family="Times New Roman,serif" font-size="11.00">A×B → C(FP32)</text>
</g>
<!-- deqA&#45;&gt;MAC -->
<g id="edge8" class="edge">
<title>deqA&#45;&gt;MAC</title>
<path fill="none" stroke="black" d="M428.24,-276.32C376.65,-259.15 298.06,-233 244.86,-215.3"/>
<polygon fill="black" stroke="black" points="246.27,-212.08 235.68,-212.24 244.06,-218.72 246.27,-212.08"/>
</g>
<!-- deqB&#45;&gt;MAC -->
<g id="edge10" class="edge">
<title>deqB&#45;&gt;MAC</title>
<path fill="none" stroke="black" d="M187.62,-276.32C187.62,-263.75 187.62,-246.36 187.62,-231"/>
<polygon fill="black" stroke="black" points="191.13,-231.27 187.63,-221.27 184.13,-231.27 191.13,-231.27"/>
</g>
<!-- ACC -->
<g id="node13" class="node">
<title>ACC</title>
<path fill="#ffe4e6" stroke="black" d="M254.88,-134C254.88,-134 120.38,-134 120.38,-134 114.38,-134 108.38,-128 108.38,-122 108.38,-122 108.38,-97.5 108.38,-97.5 108.38,-91.5 114.38,-85.5 120.38,-85.5 120.38,-85.5 254.88,-85.5 254.88,-85.5 260.88,-85.5 266.88,-91.5 266.88,-97.5 266.88,-97.5 266.88,-122 266.88,-122 266.88,-128 260.88,-134 254.88,-134"/>
<text xml:space="preserve" text-anchor="middle" x="187.62" y="-119.55" font-family="Times New Roman,serif" font-size="11.00">Accumulator C (FP32)</text>
<text xml:space="preserve" text-anchor="middle" x="187.62" y="-106.05" font-family="Times New Roman,serif" font-size="11.00">• Internal A&#45;RF (bTOP=0)</text>
<text xml:space="preserve" text-anchor="middle" x="187.62" y="-92.55" font-family="Times New Roman,serif" font-size="11.00">• External DMA path (bTOP=1)</text>
</g>
<!-- MAC&#45;&gt;ACC -->
<g id="edge13" class="edge">
<title>MAC&#45;&gt;ACC</title>
<path fill="none" stroke="black" d="M187.62,-170.55C187.62,-162.81 187.62,-154.05 187.62,-145.67"/>
<polygon fill="black" stroke="black" points="191.13,-145.74 187.63,-135.74 184.13,-145.74 191.13,-145.74"/>
</g>
<!-- status -->
<g id="node16" class="node">
<title>status</title>
<path fill="#ffffff" stroke="black" d="M191.88,-562.75C191.88,-562.75 21.38,-562.75 21.38,-562.75 15.38,-562.75 9.38,-556.75 9.38,-550.75 9.38,-550.75 9.38,-538.75 9.38,-538.75 9.38,-532.75 15.38,-526.75 21.38,-526.75 21.38,-526.75 191.88,-526.75 191.88,-526.75 197.88,-526.75 203.88,-532.75 203.88,-538.75 203.88,-538.75 203.88,-550.75 203.88,-550.75 203.88,-556.75 197.88,-562.75 191.88,-562.75"/>
<text xml:space="preserve" text-anchor="middle" x="106.62" y="-547.8" font-family="Times New Roman,serif" font-size="11.00">CSR.status / km_progress</text>
<text xml:space="preserve" text-anchor="middle" x="106.62" y="-534.3" font-family="Times New Roman,serif" font-size="11.00">(tile_count, commit trigger, ext_tile_sel)</text>
</g>
<!-- MAC&#45;&gt;status -->
<g id="edge16" class="edge">
<title>MAC&#45;&gt;status</title>
<path fill="none" stroke="#94a3b8" stroke-dasharray="5,2" d="M140.94,-200.68C86.14,-208.76 2.62,-231.3 2.62,-293.75 2.62,-472.75 2.62,-472.75 2.62,-472.75 2.62,-494.63 18.52,-510.26 37.89,-521.17"/>
<polygon fill="#94a3b8" stroke="#94a3b8" points="36.09,-524.19 46.59,-525.62 39.28,-517.95 36.09,-524.19"/>
<text xml:space="preserve" text-anchor="middle" x="45.38" y="-378.2" font-family="Times New Roman,serif" font-size="14.00">progress update</text>
</g>
<!-- Astore -->
<g id="node14" class="node">
<title>Astore</title>
<path fill="#fce7f3" stroke="black" d="M177.25,-42.25C177.25,-42.25 12,-42.25 12,-42.25 6,-42.25 0,-36.25 0,-30.25 0,-30.25 0,-18.25 0,-18.25 0,-12.25 6,-6.25 12,-6.25 12,-6.25 177.25,-6.25 177.25,-6.25 183.25,-6.25 189.25,-12.25 189.25,-18.25 189.25,-18.25 189.25,-30.25 189.25,-30.25 189.25,-36.25 183.25,-42.25 177.25,-42.25"/>
<text xml:space="preserve" text-anchor="middle" x="94.62" y="-20.55" font-family="Times New Roman,serif" font-size="11.00">Astore → External Memory (bTOP=1)</text>
</g>
<!-- ACC&#45;&gt;Astore -->
<g id="edge14" class="edge">
<title>ACC&#45;&gt;Astore</title>
<path fill="none" stroke="black" d="M161.22,-85.05C149.12,-74.18 134.78,-61.3 122.5,-50.28"/>
<polygon fill="black" stroke="black" points="124.9,-47.73 115.12,-43.65 120.22,-52.94 124.9,-47.73"/>
</g>
<!-- IntARF -->
<g id="node15" class="node">
<title>IntARF</title>
<path fill="#fce7f3" stroke="black" d="M341.5,-48.5C341.5,-48.5 219.75,-48.5 219.75,-48.5 213.75,-48.5 207.75,-42.5 207.75,-36.5 207.75,-36.5 207.75,-12 207.75,-12 207.75,-6 213.75,0 219.75,0 219.75,0 341.5,0 341.5,0 347.5,0 353.5,-6 353.5,-12 353.5,-12 353.5,-36.5 353.5,-36.5 353.5,-42.5 347.5,-48.5 341.5,-48.5"/>
<text xml:space="preserve" text-anchor="middle" x="280.62" y="-34.05" font-family="Times New Roman,serif" font-size="11.00">Internal A&#45;RF (bTOP=0)</text>
<text xml:space="preserve" text-anchor="middle" x="280.62" y="-20.55" font-family="Times New Roman,serif" font-size="11.00">Local Tile Bank</text>
<text xml:space="preserve" text-anchor="middle" x="280.62" y="-7.05" font-family="Times New Roman,serif" font-size="11.00">(1&#45;cycle overlap w/ next tile)</text>
</g>
<!-- ACC&#45;&gt;IntARF -->
<g id="edge15" class="edge">
<title>ACC&#45;&gt;IntARF</title>
<path fill="none" stroke="black" d="M214.03,-85.05C224.03,-76.07 235.56,-65.71 246.19,-56.16"/>
<polygon fill="black" stroke="black" points="248.25,-59.02 253.35,-49.74 243.57,-53.81 248.25,-59.02"/>
</g>
<!-- status&#45;&gt;SA_pref -->
<g id="edge17" class="edge">
<title>status&#45;&gt;SA_pref</title>
<path fill="none" stroke="#94a3b8" stroke-dasharray="5,2" d="M193.17,-526.28C241.91,-516.39 304.2,-503.65 368.28,-490.23"/>
<polygon fill="#94a3b8" stroke="#94a3b8" points="368.87,-493.68 377.94,-488.21 367.43,-486.83 368.87,-493.68"/>
</g>
<!-- status&#45;&gt;SW_pref -->
<g id="edge18" class="edge">
<title>status&#45;&gt;SW_pref</title>
<path fill="none" stroke="#94a3b8" stroke-dasharray="5,2" d="M151.64,-526.38C176.7,-516.71 208.12,-504.59 234.74,-494.31"/>
<polygon fill="#94a3b8" stroke="#94a3b8" points="235.96,-497.6 244.03,-490.73 233.44,-491.06 235.96,-497.6"/>
</g>
</g>
</svg>
