<?xml version="1.0" encoding="UTF-8" standalone="no"?>
<!DOCTYPE svg PUBLIC "-//W3C//DTD SVG 1.1//EN"
 "http://www.w3.org/Graphics/SVG/1.1/DTD/svg11.dtd">
<!-- Generated by graphviz version 13.1.2 (20250808.2320)
 -->
<!-- Title: Guard4x4 Pages: 1 -->
<svg width="566pt" height="112pt"
 viewBox="0.00 0.00 566.00 112.00" xmlns="http://www.w3.org/2000/svg" xmlns:xlink="http://www.w3.org/1999/xlink">
<g id="graph0" class="graph" transform="scale(1 1) rotate(0) translate(4 107.5)">
<title>Guard4x4</title>
<polygon fill="white" stroke="none" points="-4,4 -4,-107.5 562,-107.5 562,4 -4,4"/>
<!-- start -->
<g id="node1" class="node">
<title>start</title>
<path fill="none" stroke="black" d="M73,-42.5C73,-42.5 12,-42.5 12,-42.5 6,-42.5 0,-36.5 0,-30.5 0,-30.5 0,-18.5 0,-18.5 0,-12.5 6,-6.5 12,-6.5 12,-6.5 73,-6.5 73,-6.5 79,-6.5 85,-12.5 85,-18.5 85,-18.5 85,-30.5 85,-30.5 85,-36.5 79,-42.5 73,-42.5"/>
<text xml:space="preserve" text-anchor="middle" x="42.5" y="-19.45" font-family="Times New Roman,serif" font-size="14.00">Request 4×4</text>
</g>
<!-- w -->
<g id="node2" class="node">
<title>w</title>
<path fill="none" stroke="black" d="M225.75,-42.5C225.75,-42.5 134,-42.5 134,-42.5 128,-42.5 122,-36.5 122,-30.5 122,-30.5 122,-18.5 122,-18.5 122,-12.5 128,-6.5 134,-6.5 134,-6.5 225.75,-6.5 225.75,-6.5 231.75,-6.5 237.75,-12.5 237.75,-18.5 237.75,-18.5 237.75,-30.5 237.75,-30.5 237.75,-36.5 231.75,-42.5 225.75,-42.5"/>
<text xml:space="preserve" text-anchor="middle" x="179.88" y="-19.45" font-family="Times New Roman,serif" font-size="14.00">out_width ≤ 16b ?</text>
</g>
<!-- start&#45;&gt;w -->
<g id="edge1" class="edge">
<title>start&#45;&gt;w</title>
<path fill="none" stroke="black" d="M85.22,-24.5C93.22,-24.5 101.78,-24.5 110.36,-24.5"/>
<polygon fill="black" stroke="black" points="110.09,-28 120.09,-24.5 110.09,-21 110.09,-28"/>
</g>
<!-- t -->
<g id="node3" class="node">
<title>t</title>
<path fill="none" stroke="black" d="M376.25,-83.5C376.25,-83.5 286.75,-83.5 286.75,-83.5 280.75,-83.5 274.75,-77.5 274.75,-71.5 274.75,-71.5 274.75,-59.5 274.75,-59.5 274.75,-53.5 280.75,-47.5 286.75,-47.5 286.75,-47.5 376.25,-47.5 376.25,-47.5 382.25,-47.5 388.25,-53.5 388.25,-59.5 388.25,-59.5 388.25,-71.5 388.25,-71.5 388.25,-77.5 382.25,-83.5 376.25,-83.5"/>
<text xml:space="preserve" text-anchor="middle" x="331.5" y="-60.45" font-family="Times New Roman,serif" font-size="14.00">result_tiles ≤ 32 ?</text>
</g>
<!-- w&#45;&gt;t -->
<g id="edge2" class="edge">
<title>w&#45;&gt;t</title>
<path fill="none" stroke="black" d="M237.87,-40.12C246.35,-42.44 255.15,-44.85 263.8,-47.22"/>
<polygon fill="black" stroke="black" points="262.62,-50.53 273.19,-49.8 264.47,-43.78 262.62,-50.53"/>
</g>
<!-- no -->
<g id="node5" class="node">
<title>no</title>
<path fill="none" stroke="black" d="M546,-41C546,-41 454.25,-41 454.25,-41 448.25,-41 442.25,-35 442.25,-29 442.25,-29 442.25,-12 442.25,-12 442.25,-6 448.25,0 454.25,0 454.25,0 546,0 546,0 552,0 558,-6 558,-12 558,-12 558,-29 558,-29 558,-35 552,-41 546,-41"/>
<text xml:space="preserve" text-anchor="middle" x="500.12" y="-23.7" font-family="Times New Roman,serif" font-size="14.00">Fallback to 2×2</text>
<text xml:space="preserve" text-anchor="middle" x="500.12" y="-7.2" font-family="Times New Roman,serif" font-size="14.00">set guard_fallback</text>
</g>
<!-- w&#45;&gt;no -->
<g id="edge4" class="edge">
<title>w&#45;&gt;no</title>
<path fill="none" stroke="black" d="M237.96,-22.8C250.1,-22.49 262.85,-22.2 274.75,-22 327.06,-21.13 386.24,-20.76 430.69,-20.6"/>
<polygon fill="black" stroke="black" points="430.44,-24.1 440.43,-20.57 430.42,-17.1 430.44,-24.1"/>
<text xml:space="preserve" text-anchor="middle" x="331.5" y="-25.2" font-family="Times New Roman,serif" font-size="14.00">no</text>
</g>
<!-- ok -->
<g id="node4" class="node">
<title>ok</title>
<path fill="none" stroke="black" d="M527.62,-103.5C527.62,-103.5 472.62,-103.5 472.62,-103.5 466.62,-103.5 460.62,-97.5 460.62,-91.5 460.62,-91.5 460.62,-79.5 460.62,-79.5 460.62,-73.5 466.62,-67.5 472.62,-67.5 472.62,-67.5 527.62,-67.5 527.62,-67.5 533.62,-67.5 539.62,-73.5 539.62,-79.5 539.62,-79.5 539.62,-91.5 539.62,-91.5 539.62,-97.5 533.62,-103.5 527.62,-103.5"/>
<text xml:space="preserve" text-anchor="middle" x="500.12" y="-80.45" font-family="Times New Roman,serif" font-size="14.00">Enable 4×4</text>
</g>
<!-- t&#45;&gt;ok -->
<g id="edge3" class="edge">
<title>t&#45;&gt;ok</title>
<path fill="none" stroke="black" d="M388.45,-72.22C408.03,-74.57 429.89,-77.19 448.97,-79.48"/>
<polygon fill="black" stroke="black" points="448.3,-82.92 458.65,-80.64 449.14,-75.97 448.3,-82.92"/>
<text xml:space="preserve" text-anchor="middle" x="415.25" y="-79.3" font-family="Times New Roman,serif" font-size="14.00">yes</text>
</g>
<!-- t&#45;&gt;no -->
<g id="edge5" class="edge">
<title>t&#45;&gt;no</title>
<path fill="none" stroke="black" d="M388.45,-50.39C402.16,-46.69 416.98,-42.68 431.19,-38.85"/>
<polygon fill="black" stroke="black" points="431.7,-42.33 440.44,-36.35 429.88,-35.58 431.7,-42.33"/>
<text xml:space="preserve" text-anchor="middle" x="415.25" y="-47.55" font-family="Times New Roman,serif" font-size="14.00">no</text>
</g>
</g>
</svg>
