<?xml version="1.0" encoding="UTF-8" standalone="no"?>
<!DOCTYPE svg PUBLIC "-//W3C//DTD SVG 1.1//EN"
 "http://www.w3.org/Graphics/SVG/1.1/DTD/svg11.dtd">
<!-- Generated by graphviz version 13.1.2 (20250808.2320)
 -->
<!-- Title: ScalingPolicy Pages: 1 -->
<svg width="238pt" height="544pt"
 viewBox="0.00 0.00 238.00 544.00" xmlns="http://www.w3.org/2000/svg" xmlns:xlink="http://www.w3.org/1999/xlink">
<g id="graph0" class="graph" transform="scale(1 1) rotate(0) translate(4 540)">
<title>ScalingPolicy</title>
<polygon fill="white" stroke="none" points="-4,4 -4,-540 234,-540 234,4 -4,4"/>
<!-- P -->
<g id="node1" class="node">
<title>P</title>
<path fill="none" stroke="black" d="M145.88,-536C145.88,-536 56.38,-536 56.38,-536 50.38,-536 44.38,-530 44.38,-524 44.38,-524 44.38,-512 44.38,-512 44.38,-506 50.38,-500 56.38,-500 56.38,-500 145.88,-500 145.88,-500 151.88,-500 157.88,-506 157.88,-512 157.88,-512 157.88,-524 157.88,-524 157.88,-530 151.88,-536 145.88,-536"/>
<text xml:space="preserve" text-anchor="middle" x="101.12" y="-512.95" font-family="Times New Roman,serif" font-size="14.00">Target MACs/cyc</text>
</g>
<!-- C -->
<g id="node2" class="node">
<title>C</title>
<path fill="none" stroke="black" d="M154.88,-463C154.88,-463 47.38,-463 47.38,-463 41.38,-463 35.38,-457 35.38,-451 35.38,-451 35.38,-434 35.38,-434 35.38,-428 41.38,-422 47.38,-422 47.38,-422 154.88,-422 154.88,-422 160.88,-422 166.88,-428 166.88,-434 166.88,-434 166.88,-451 166.88,-451 166.88,-457 160.88,-463 154.88,-463"/>
<text xml:space="preserve" text-anchor="middle" x="101.12" y="-445.7" font-family="Times New Roman,serif" font-size="14.00">Cells P = pick(macs)</text>
<text xml:space="preserve" text-anchor="middle" x="101.12" y="-429.2" font-family="Times New Roman,serif" font-size="14.00">(16/64/128)</text>
</g>
<!-- P&#45;&gt;C -->
<g id="edge1" class="edge">
<title>P&#45;&gt;C</title>
<path fill="none" stroke="black" d="M101.12,-499.58C101.12,-492.2 101.12,-483.35 101.12,-474.9"/>
<polygon fill="black" stroke="black" points="104.63,-474.9 101.13,-464.9 97.63,-474.9 104.63,-474.9"/>
</g>
<!-- W -->
<g id="node3" class="node">
<title>W</title>
<path fill="none" stroke="black" d="M153.75,-385C153.75,-385 48.5,-385 48.5,-385 42.5,-385 36.5,-379 36.5,-373 36.5,-373 36.5,-356 36.5,-356 36.5,-350 42.5,-344 48.5,-344 48.5,-344 153.75,-344 153.75,-344 159.75,-344 165.75,-350 165.75,-356 165.75,-356 165.75,-373 165.75,-373 165.75,-379 159.75,-385 153.75,-385"/>
<text xml:space="preserve" text-anchor="middle" x="101.12" y="-367.7" font-family="Times New Roman,serif" font-size="14.00">Choose (Mb,Nb,Kb)</text>
<text xml:space="preserve" text-anchor="middle" x="101.12" y="-351.2" font-family="Times New Roman,serif" font-size="14.00">by elem width</text>
</g>
<!-- C&#45;&gt;W -->
<g id="edge2" class="edge">
<title>C&#45;&gt;W</title>
<path fill="none" stroke="black" d="M101.12,-421.53C101.12,-413.94 101.12,-405.1 101.12,-396.71"/>
<polygon fill="black" stroke="black" points="104.63,-396.85 101.13,-386.85 97.63,-396.85 104.63,-396.85"/>
</g>
<!-- G -->
<g id="node4" class="node">
<title>G</title>
<path fill="none" stroke="black" d="M160.88,-307C160.88,-307 41.38,-307 41.38,-307 35.38,-307 29.38,-301 29.38,-295 29.38,-295 29.38,-278 29.38,-278 29.38,-272 35.38,-266 41.38,-266 41.38,-266 160.88,-266 160.88,-266 166.88,-266 172.88,-272 172.88,-278 172.88,-278 172.88,-295 172.88,-295 172.88,-301 166.88,-307 160.88,-307"/>
<text xml:space="preserve" text-anchor="middle" x="101.12" y="-289.7" font-family="Times New Roman,serif" font-size="14.00">Guard 4×4?</text>
<text xml:space="preserve" text-anchor="middle" x="101.12" y="-273.2" font-family="Times New Roman,serif" font-size="14.00">(out≤16b &amp;&amp; tiles≤32)</text>
</g>
<!-- W&#45;&gt;G -->
<g id="edge3" class="edge">
<title>W&#45;&gt;G</title>
<path fill="none" stroke="black" d="M101.12,-343.53C101.12,-335.94 101.12,-327.1 101.12,-318.71"/>
<polygon fill="black" stroke="black" points="104.63,-318.85 101.13,-308.85 97.63,-318.85 104.63,-318.85"/>
</g>
<!-- M -->
<g id="node5" class="node">
<title>M</title>
<path fill="none" stroke="black" d="M66.25,-211C66.25,-211 12,-211 12,-211 6,-211 0,-205 0,-199 0,-199 0,-187 0,-187 0,-181 6,-175 12,-175 12,-175 66.25,-175 66.25,-175 72.25,-175 78.25,-181 78.25,-187 78.25,-187 78.25,-199 78.25,-199 78.25,-205 72.25,-211 66.25,-211"/>
<text xml:space="preserve" text-anchor="middle" x="39.12" y="-187.95" font-family="Times New Roman,serif" font-size="14.00">Mode=4×4</text>
</g>
<!-- G&#45;&gt;M -->
<g id="edge4" class="edge">
<title>G&#45;&gt;M</title>
<path fill="none" stroke="black" d="M87.67,-265.65C78.76,-252.49 66.96,-235.08 57.23,-220.72"/>
<polygon fill="black" stroke="black" points="60.24,-218.92 51.73,-212.6 54.44,-222.84 60.24,-218.92"/>
<text xml:space="preserve" text-anchor="middle" x="84.68" y="-234.7" font-family="Times New Roman,serif" font-size="14.00">yes</text>
</g>
<!-- F -->
<g id="node6" class="node">
<title>F</title>
<path fill="none" stroke="black" d="M218,-213.5C218,-213.5 108.25,-213.5 108.25,-213.5 102.25,-213.5 96.25,-207.5 96.25,-201.5 96.25,-201.5 96.25,-184.5 96.25,-184.5 96.25,-178.5 102.25,-172.5 108.25,-172.5 108.25,-172.5 218,-172.5 218,-172.5 224,-172.5 230,-178.5 230,-184.5 230,-184.5 230,-201.5 230,-201.5 230,-207.5 224,-213.5 218,-213.5"/>
<text xml:space="preserve" text-anchor="middle" x="163.12" y="-196.2" font-family="Times New Roman,serif" font-size="14.00">Mode=2×2</text>
<text xml:space="preserve" text-anchor="middle" x="163.12" y="-179.7" font-family="Times New Roman,serif" font-size="14.00">mx.guard_fallback=1</text>
</g>
<!-- G&#45;&gt;F -->
<g id="edge5" class="edge">
<title>G&#45;&gt;F</title>
<path fill="none" stroke="black" d="M114.58,-265.65C123.03,-253.18 134.07,-236.88 143.49,-222.98"/>
<polygon fill="black" stroke="black" points="146.14,-225.31 148.85,-215.07 140.34,-221.38 146.14,-225.31"/>
<text xml:space="preserve" text-anchor="middle" x="144.43" y="-234.7" font-family="Times New Roman,serif" font-size="14.00">no</text>
</g>
<!-- S -->
<g id="node7" class="node">
<title>S</title>
<path fill="none" stroke="black" d="M145.62,-135.5C145.62,-135.5 54.62,-135.5 54.62,-135.5 48.62,-135.5 42.62,-129.5 42.62,-123.5 42.62,-123.5 42.62,-90 42.62,-90 42.62,-84 48.62,-78 54.62,-78 54.62,-78 145.62,-78 145.62,-78 151.62,-78 157.62,-84 157.62,-90 157.62,-90 157.62,-123.5 157.62,-123.5 157.62,-129.5 151.62,-135.5 145.62,-135.5"/>
<text xml:space="preserve" text-anchor="middle" x="100.12" y="-118.2" font-family="Times New Roman,serif" font-size="14.00">Schedule P cells</text>
<text xml:space="preserve" text-anchor="middle" x="100.12" y="-101.7" font-family="Times New Roman,serif" font-size="14.00">(loop over tiles)</text>
<text xml:space="preserve" text-anchor="middle" x="100.12" y="-85.2" font-family="Times New Roman,serif" font-size="14.00">Double&#45;buffer I/O</text>
</g>
<!-- M&#45;&gt;S -->
<g id="edge6" class="edge">
<title>M&#45;&gt;S</title>
<path fill="none" stroke="black" d="M51.76,-174.54C57.96,-165.98 65.68,-155.32 73.12,-145.05"/>
<polygon fill="black" stroke="black" points="75.9,-147.18 78.93,-137.02 70.23,-143.07 75.9,-147.18"/>
</g>
<!-- F&#45;&gt;S -->
<g id="edge7" class="edge">
<title>F&#45;&gt;S</title>
<path fill="none" stroke="black" d="M148.19,-172.03C142.14,-163.93 134.93,-154.3 127.97,-144.99"/>
<polygon fill="black" stroke="black" points="130.84,-142.99 122.05,-137.07 125.24,-147.18 130.84,-142.99"/>
</g>
<!-- note -->
<g id="node8" class="node">
<title>note</title>
<polygon fill="none" stroke="black" stroke-dasharray="5,2" points="148.62,-41 45.62,-41 45.62,0 154.62,0 154.62,-35 148.62,-41"/>
<polyline fill="none" stroke="black" stroke-dasharray="5,2" points="148.62,-41 148.62,-35"/>
<polyline fill="none" stroke="black" stroke-dasharray="5,2" points="154.62,-35 148.62,-35"/>
<text xml:space="preserve" text-anchor="middle" x="100.12" y="-23.7" font-family="Times New Roman,serif" font-size="14.00">2R/1W sustained</text>
<text xml:space="preserve" text-anchor="middle" x="100.12" y="-7.2" font-family="Times New Roman,serif" font-size="14.00">TRF banking</text>
</g>
<!-- S&#45;&gt;note -->
<g id="edge8" class="edge">
<title>S&#45;&gt;note</title>
<path fill="none" stroke="black" d="M100.12,-77.7C100.12,-69.72 100.12,-60.98 100.12,-52.83"/>
<polygon fill="black" stroke="black" points="103.63,-52.96 100.13,-42.96 96.63,-52.96 103.63,-52.96"/>
</g>
</g>
</svg>
