<?xml version="1.0" encoding="UTF-8" standalone="no"?>
<!DOCTYPE svg PUBLIC "-//W3C//DTD SVG 1.1//EN"
 "http://www.w3.org/Graphics/SVG/1.1/DTD/svg11.dtd">
<!-- Generated by graphviz version 13.1.2 (20250808.2320)
 -->
<!-- Title: ScalingFlow Pages: 1 -->
<svg width="446pt" height="433pt"
 viewBox="0.00 0.00 446.00 433.00" xmlns="http://www.w3.org/2000/svg" xmlns:xlink="http://www.w3.org/1999/xlink">
<g id="graph0" class="graph" transform="scale(1 1) rotate(0) translate(4 428.5)">
<title>ScalingFlow</title>
<polygon fill="white" stroke="none" points="-4,4 -4,-428.5 442,-428.5 442,4 -4,4"/>
<g id="clust1" class="cluster">
<title>cluster_host</title>
<polygon fill="none" stroke="black" points="8,-86 8,-373 184,-373 184,-86 8,-86"/>
<text xml:space="preserve" text-anchor="middle" x="96" y="-355.7" font-family="Times New Roman,serif" font-size="14.00">Host/Runtime</text>
</g>
<g id="clust2" class="cluster">
<title>cluster_core</title>
<polygon fill="none" stroke="black" points="219,-8 219,-373 430,-373 430,-8 219,-8"/>
<text xml:space="preserve" text-anchor="middle" x="324.5" y="-355.7" font-family="Times New Roman,serif" font-size="14.00">AME Core (Tile RF + MAC Units)</text>
</g>
<!-- host_anchor -->
<!-- A -->
<g id="node3" class="node">
<title>A</title>
<path fill="none" stroke="black" d="M138.12,-340.5C138.12,-340.5 53.88,-340.5 53.88,-340.5 47.88,-340.5 41.88,-334.5 41.88,-328.5 41.88,-328.5 41.88,-311.5 41.88,-311.5 41.88,-305.5 47.88,-299.5 53.88,-299.5 53.88,-299.5 138.12,-299.5 138.12,-299.5 144.12,-299.5 150.12,-305.5 150.12,-311.5 150.12,-311.5 150.12,-328.5 150.12,-328.5 150.12,-334.5 144.12,-340.5 138.12,-340.5"/>
<text xml:space="preserve" text-anchor="middle" x="96" y="-323.2" font-family="Times New Roman,serif" font-size="14.00">GEMM(M,N,K)</text>
<text xml:space="preserve" text-anchor="middle" x="96" y="-306.7" font-family="Times New Roman,serif" font-size="14.00">(Ft, bOVF, bTR)</text>
</g>
<!-- host_anchor&#45;&gt;A -->
<!-- core_anchor -->
<!-- D -->
<g id="node6" class="node">
<title>D</title>
<path fill="none" stroke="black" d="M360.75,-340.5C360.75,-340.5 271.25,-340.5 271.25,-340.5 265.25,-340.5 259.25,-334.5 259.25,-328.5 259.25,-328.5 259.25,-311.5 259.25,-311.5 259.25,-305.5 265.25,-299.5 271.25,-299.5 271.25,-299.5 360.75,-299.5 360.75,-299.5 366.75,-299.5 372.75,-305.5 372.75,-311.5 372.75,-311.5 372.75,-328.5 372.75,-328.5 372.75,-334.5 366.75,-340.5 360.75,-340.5"/>
<text xml:space="preserve" text-anchor="middle" x="316" y="-323.2" font-family="Times New Roman,serif" font-size="14.00">Tile Loader</text>
<text xml:space="preserve" text-anchor="middle" x="316" y="-306.7" font-family="Times New Roman,serif" font-size="14.00">(L0 buf, prefetch)</text>
</g>
<!-- core_anchor&#45;&gt;D -->
<!-- B -->
<g id="node4" class="node">
<title>B</title>
<path fill="none" stroke="black" d="M164,-262.5C164,-262.5 28,-262.5 28,-262.5 22,-262.5 16,-256.5 16,-250.5 16,-250.5 16,-217 16,-217 16,-211 22,-205 28,-205 28,-205 164,-205 164,-205 170,-205 176,-211 176,-217 176,-217 176,-250.5 176,-250.5 176,-256.5 170,-262.5 164,-262.5"/>
<text xml:space="preserve" text-anchor="middle" x="96" y="-245.2" font-family="Times New Roman,serif" font-size="14.00">Partitioner</text>
<text xml:space="preserve" text-anchor="middle" x="96" y="-228.7" font-family="Times New Roman,serif" font-size="14.00">block M_b×N_b×K_b</text>
<text xml:space="preserve" text-anchor="middle" x="96" y="-212.2" font-family="Times New Roman,serif" font-size="14.00">(tile sizes: 16×{8,16,4,2})</text>
</g>
<!-- A&#45;&gt;B -->
<g id="edge1" class="edge">
<title>A&#45;&gt;B</title>
<path fill="none" stroke="black" d="M96,-299.03C96,-291.61 96,-282.9 96,-274.33"/>
<polygon fill="black" stroke="black" points="99.5,-274.37 96,-264.37 92.5,-274.37 99.5,-274.37"/>
</g>
<!-- C -->
<g id="node5" class="node">
<title>C</title>
<path fill="none" stroke="black" d="M143,-168C143,-168 49,-168 49,-168 43,-168 37,-162 37,-156 37,-156 37,-106 37,-106 37,-100 43,-94 49,-94 49,-94 143,-94 143,-94 149,-94 155,-100 155,-106 155,-106 155,-156 155,-156 155,-162 149,-168 143,-168"/>
<text xml:space="preserve" text-anchor="middle" x="96" y="-150.7" font-family="Times New Roman,serif" font-size="14.00">Scheduler</text>
<text xml:space="preserve" text-anchor="middle" x="96" y="-134.2" font-family="Times New Roman,serif" font-size="14.00">(target MACs/cyc,</text>
<text xml:space="preserve" text-anchor="middle" x="96" y="-117.7" font-family="Times New Roman,serif" font-size="14.00">parallel cells,</text>
<text xml:space="preserve" text-anchor="middle" x="96" y="-101.2" font-family="Times New Roman,serif" font-size="14.00">double&#45;buffering)</text>
</g>
<!-- B&#45;&gt;C -->
<g id="edge2" class="edge">
<title>B&#45;&gt;C</title>
<path fill="none" stroke="black" d="M96,-204.69C96,-196.92 96,-188.27 96,-179.72"/>
<polygon fill="black" stroke="black" points="99.5,-179.73 96,-169.73 92.5,-179.73 99.5,-179.73"/>
</g>
<!-- C&#45;&gt;D -->
<g id="edge8" class="edge">
<title>C&#45;&gt;D</title>
<path fill="none" stroke="black" d="M142.87,-168.23C156.8,-179.58 171.85,-192.44 185,-205 209.86,-228.75 211.1,-239.61 236.75,-262.5 248.72,-273.18 262.71,-283.71 275.58,-292.74"/>
<polygon fill="black" stroke="black" points="273.24,-295.37 283.46,-298.16 277.21,-289.61 273.24,-295.37"/>
<text xml:space="preserve" text-anchor="middle" x="254.38" y="-228.7" font-family="Times New Roman,serif" font-size="14.00">blocks</text>
</g>
<!-- E -->
<g id="node7" class="node">
<title>E</title>
<path fill="none" stroke="black" d="M371.12,-262.5C371.12,-262.5 292.88,-262.5 292.88,-262.5 286.88,-262.5 280.88,-256.5 280.88,-250.5 280.88,-250.5 280.88,-217 280.88,-217 280.88,-211 286.88,-205 292.88,-205 292.88,-205 371.12,-205 371.12,-205 377.12,-205 383.12,-211 383.12,-217 383.12,-217 383.12,-250.5 383.12,-250.5 383.12,-256.5 377.12,-262.5 371.12,-262.5"/>
<text xml:space="preserve" text-anchor="middle" x="332" y="-245.2" font-family="Times New Roman,serif" font-size="14.00">Dispatch Fabric</text>
<text xml:space="preserve" text-anchor="middle" x="332" y="-228.7" font-family="Times New Roman,serif" font-size="14.00">(4×4 cells × P)</text>
<text xml:space="preserve" text-anchor="middle" x="332" y="-212.2" font-family="Times New Roman,serif" font-size="14.00">P=16/64/128 ...</text>
</g>
<!-- D&#45;&gt;E -->
<g id="edge3" class="edge">
<title>D&#45;&gt;E</title>
<path fill="none" stroke="black" d="M319.79,-299.03C321.22,-291.52 322.89,-282.7 324.54,-274.03"/>
<polygon fill="black" stroke="black" points="327.95,-274.83 326.38,-264.35 321.07,-273.52 327.95,-274.83"/>
</g>
<!-- F -->
<g id="node8" class="node">
<title>F</title>
<path fill="none" stroke="black" d="M394,-151.5C394,-151.5 282,-151.5 282,-151.5 276,-151.5 270,-145.5 270,-139.5 270,-139.5 270,-122.5 270,-122.5 270,-116.5 276,-110.5 282,-110.5 282,-110.5 394,-110.5 394,-110.5 400,-110.5 406,-116.5 406,-122.5 406,-122.5 406,-139.5 406,-139.5 406,-145.5 400,-151.5 394,-151.5"/>
<text xml:space="preserve" text-anchor="middle" x="338" y="-134.2" font-family="Times New Roman,serif" font-size="14.00">Accumulator RF</text>
<text xml:space="preserve" text-anchor="middle" x="338" y="-117.7" font-family="Times New Roman,serif" font-size="14.00">(C tiles: INT16/FP32)</text>
</g>
<!-- E&#45;&gt;F -->
<g id="edge4" class="edge">
<title>E&#45;&gt;F</title>
<path fill="none" stroke="black" d="M333.67,-204.69C334.44,-191.85 335.34,-176.59 336.13,-163.37"/>
<polygon fill="black" stroke="black" points="339.62,-163.64 336.72,-153.45 332.63,-163.22 339.62,-163.64"/>
</g>
<!-- F&#45;&gt;C -->
<g id="edge9" class="edge">
<title>F&#45;&gt;C</title>
<path fill="none" stroke="black" d="M258.36,-131C224.73,-131 186.25,-131 155.2,-131"/>
<polygon fill="black" stroke="black" points="258.05,-134.5 268.05,-131 258.04,-127.5 258.05,-134.5"/>
<text xml:space="preserve" text-anchor="middle" x="212.5" y="-137.2" font-family="Times New Roman,serif" font-size="14.00">partial&#45;sum status</text>
</g>
<!-- G -->
<g id="node9" class="node">
<title>G</title>
<path fill="none" stroke="black" d="M383.5,-57C383.5,-57 292.5,-57 292.5,-57 286.5,-57 280.5,-51 280.5,-45 280.5,-45 280.5,-28 280.5,-28 280.5,-22 286.5,-16 292.5,-16 292.5,-16 383.5,-16 383.5,-16 389.5,-16 395.5,-22 395.5,-28 395.5,-28 395.5,-45 395.5,-45 395.5,-51 389.5,-57 383.5,-57"/>
<text xml:space="preserve" text-anchor="middle" x="338" y="-39.7" font-family="Times New Roman,serif" font-size="14.00">Storeback</text>
<text xml:space="preserve" text-anchor="middle" x="338" y="-23.2" font-family="Times New Roman,serif" font-size="14.00">(coalesce, stream)</text>
</g>
<!-- F&#45;&gt;G -->
<g id="edge5" class="edge">
<title>F&#45;&gt;G</title>
<path fill="none" stroke="black" d="M338,-110.38C338,-98.32 338,-82.6 338,-68.85"/>
<polygon fill="black" stroke="black" points="341.5,-68.92 338,-58.92 334.5,-68.92 341.5,-68.92"/>
</g>
</g>
</svg>
