<?xml version="1.0" encoding="UTF-8" standalone="no"?>
<!DOCTYPE svg PUBLIC "-//W3C//DTD SVG 1.1//EN"
 "http://www.w3.org/Graphics/SVG/1.1/DTD/svg11.dtd">
<!-- Generated by graphviz version 13.1.2 (20250808.2320)
 -->
<!-- Title: ScalingPolicy Pages: 1 -->
<svg width="238pt" height="466pt"
 viewBox="0.00 0.00 238.00 466.00" xmlns="http://www.w3.org/2000/svg" xmlns:xlink="http://www.w3.org/1999/xlink">
<g id="graph0" class="graph" transform="scale(1 1) rotate(0) translate(4 462)">
<title>ScalingPolicy</title>
<polygon fill="white" stroke="none" points="-4,4 -4,-462 234,-462 234,4 -4,4"/>
<!-- P -->
<g id="node1" class="node">
<title>P</title>
<path fill="none" stroke="black" d="M145.88,-458C145.88,-458 56.38,-458 56.38,-458 50.38,-458 44.38,-452 44.38,-446 44.38,-446 44.38,-434 44.38,-434 44.38,-428 50.38,-422 56.38,-422 56.38,-422 145.88,-422 145.88,-422 151.88,-422 157.88,-428 157.88,-434 157.88,-434 157.88,-446 157.88,-446 157.88,-452 151.88,-458 145.88,-458"/>
<text xml:space="preserve" text-anchor="middle" x="101.12" y="-434.95" font-family="Times New Roman,serif" font-size="14.00">Target MACs/cyc</text>
</g>
<!-- C -->
<g id="node2" class="node">
<title>C</title>
<path fill="none" stroke="black" d="M154.88,-385C154.88,-385 47.38,-385 47.38,-385 41.38,-385 35.38,-379 35.38,-373 35.38,-373 35.38,-356 35.38,-356 35.38,-350 41.38,-344 47.38,-344 47.38,-344 154.88,-344 154.88,-344 160.88,-344 166.88,-350 166.88,-356 166.88,-356 166.88,-373 166.88,-373 166.88,-379 160.88,-385 154.88,-385"/>
<text xml:space="preserve" text-anchor="middle" x="101.12" y="-367.7" font-family="Times New Roman,serif" font-size="14.00">Cells P = pick(macs)</text>
<text xml:space="preserve" text-anchor="middle" x="101.12" y="-351.2" font-family="Times New Roman,serif" font-size="14.00">(16/64/128)</text>
</g>
<!-- P&#45;&gt;C -->
<g id="edge1" class="edge">
<title>P&#45;&gt;C</title>
<path fill="none" stroke="black" d="M101.12,-421.58C101.12,-414.2 101.12,-405.35 101.12,-396.9"/>
<polygon fill="black" stroke="black" points="104.63,-396.9 101.13,-386.9 97.63,-396.9 104.63,-396.9"/>
</g>
<!-- W -->
<g id="node3" class="node">
<title>W</title>
<path fill="none" stroke="black" d="M153.75,-307C153.75,-307 48.5,-307 48.5,-307 42.5,-307 36.5,-301 36.5,-295 36.5,-295 36.5,-278 36.5,-278 36.5,-272 42.5,-266 48.5,-266 48.5,-266 153.75,-266 153.75,-266 159.75,-266 165.75,-272 165.75,-278 165.75,-278 165.75,-295 165.75,-295 165.75,-301 159.75,-307 153.75,-307"/>
<text xml:space="preserve" text-anchor="middle" x="101.12" y="-289.7" font-family="Times New Roman,serif" font-size="14.00">Choose (Mb,Nb,Kb)</text>
<text xml:space="preserve" text-anchor="middle" x="101.12" y="-273.2" font-family="Times New Roman,serif" font-size="14.00">by elem width</text>
</g>
<!-- C&#45;&gt;W -->
<g id="edge2" class="edge">
<title>C&#45;&gt;W</title>
<path fill="none" stroke="black" d="M101.12,-343.53C101.12,-335.94 101.12,-327.1 101.12,-318.71"/>
<polygon fill="black" stroke="black" points="104.63,-318.85 101.13,-308.85 97.63,-318.85 104.63,-318.85"/>
</g>
<!-- G -->
<g id="node4" class="node">
<title>G</title>
<path fill="none" stroke="black" d="M160.88,-229C160.88,-229 41.38,-229 41.38,-229 35.38,-229 29.38,-223 29.38,-217 29.38,-217 29.38,-200 29.38,-200 29.38,-194 35.38,-188 41.38,-188 41.38,-188 160.88,-188 160.88,-188 166.88,-188 172.88,-194 172.88,-200 172.88,-200 172.88,-217 172.88,-217 172.88,-223 166.88,-229 160.88,-229"/>
<text xml:space="preserve" text-anchor="middle" x="101.12" y="-211.7" font-family="Times New Roman,serif" font-size="14.00">Guard 4×4?</text>
<text xml:space="preserve" text-anchor="middle" x="101.12" y="-195.2" font-family="Times New Roman,serif" font-size="14.00">(out≤16b &amp;&amp; tiles≤32)</text>
</g>
<!-- W&#45;&gt;G -->
<g id="edge3" class="edge">
<title>W&#45;&gt;G</title>
<path fill="none" stroke="black" d="M101.12,-265.53C101.12,-257.94 101.12,-249.1 101.12,-240.71"/>
<polygon fill="black" stroke="black" points="104.63,-240.85 101.13,-230.85 97.63,-240.85 104.63,-240.85"/>
</g>
<!-- M -->
<g id="node5" class="node">
<title>M</title>
<path fill="none" stroke="black" d="M66.25,-133C66.25,-133 12,-133 12,-133 6,-133 0,-127 0,-121 0,-121 0,-109 0,-109 0,-103 6,-97 12,-97 12,-97 66.25,-97 66.25,-97 72.25,-97 78.25,-103 78.25,-109 78.25,-109 78.25,-121 78.25,-121 78.25,-127 72.25,-133 66.25,-133"/>
<text xml:space="preserve" text-anchor="middle" x="39.12" y="-109.95" font-family="Times New Roman,serif" font-size="14.00">Mode=4×4</text>
</g>
<!-- G&#45;&gt;M -->
<g id="edge4" class="edge">
<title>G&#45;&gt;M</title>
<path fill="none" stroke="black" d="M87.67,-187.65C78.76,-174.49 66.96,-157.08 57.23,-142.72"/>
<polygon fill="black" stroke="black" points="60.24,-140.92 51.73,-134.6 54.44,-144.84 60.24,-140.92"/>
<text xml:space="preserve" text-anchor="middle" x="84.68" y="-156.7" font-family="Times New Roman,serif" font-size="14.00">yes</text>
</g>
<!-- F -->
<g id="node6" class="node">
<title>F</title>
<path fill="none" stroke="black" d="M218,-135.5C218,-135.5 108.25,-135.5 108.25,-135.5 102.25,-135.5 96.25,-129.5 96.25,-123.5 96.25,-123.5 96.25,-106.5 96.25,-106.5 96.25,-100.5 102.25,-94.5 108.25,-94.5 108.25,-94.5 218,-94.5 218,-94.5 224,-94.5 230,-100.5 230,-106.5 230,-106.5 230,-123.5 230,-123.5 230,-129.5 224,-135.5 218,-135.5"/>
<text xml:space="preserve" text-anchor="middle" x="163.12" y="-118.2" font-family="Times New Roman,serif" font-size="14.00">Mode=2×2</text>
<text xml:space="preserve" text-anchor="middle" x="163.12" y="-101.7" font-family="Times New Roman,serif" font-size="14.00">mx.guard_fallback=1</text>
</g>
<!-- G&#45;&gt;F -->
<g id="edge5" class="edge">
<title>G&#45;&gt;F</title>
<path fill="none" stroke="black" d="M114.58,-187.65C123.03,-175.18 134.07,-158.88 143.49,-144.98"/>
<polygon fill="black" stroke="black" points="146.14,-147.31 148.85,-137.07 140.34,-143.38 146.14,-147.31"/>
<text xml:space="preserve" text-anchor="middle" x="144.43" y="-156.7" font-family="Times New Roman,serif" font-size="14.00">no</text>
</g>
<!-- S -->
<g id="node7" class="node">
<title>S</title>
<path fill="none" stroke="black" d="M145.62,-57.5C145.62,-57.5 54.62,-57.5 54.62,-57.5 48.62,-57.5 42.62,-51.5 42.62,-45.5 42.62,-45.5 42.62,-12 42.62,-12 42.62,-6 48.62,0 54.62,0 54.62,0 145.62,0 145.62,0 151.62,0 157.62,-6 157.62,-12 157.62,-12 157.62,-45.5 157.62,-45.5 157.62,-51.5 151.62,-57.5 145.62,-57.5"/>
<text xml:space="preserve" text-anchor="middle" x="100.12" y="-40.2" font-family="Times New Roman,serif" font-size="14.00">Schedule P cells</text>
<text xml:space="preserve" text-anchor="middle" x="100.12" y="-23.7" font-family="Times New Roman,serif" font-size="14.00">(loop over tiles)</text>
<text xml:space="preserve" text-anchor="middle" x="100.12" y="-7.2" font-family="Times New Roman,serif" font-size="14.00">Double&#45;buffer I/O</text>
</g>
<!-- M&#45;&gt;S -->
<g id="edge6" class="edge">
<title>M&#45;&gt;S</title>
<path fill="none" stroke="black" d="M51.76,-96.54C57.96,-87.98 65.68,-77.32 73.12,-67.05"/>
<polygon fill="black" stroke="black" points="75.9,-69.18 78.93,-59.02 70.23,-65.07 75.9,-69.18"/>
</g>
<!-- F&#45;&gt;S -->
<g id="edge7" class="edge">
<title>F&#45;&gt;S</title>
<path fill="none" stroke="black" d="M148.19,-94.03C142.14,-85.93 134.93,-76.3 127.97,-66.99"/>
<polygon fill="black" stroke="black" points="130.84,-64.99 122.05,-59.07 125.24,-69.18 130.84,-64.99"/>
</g>
</g>
</svg>
