<?xml version="1.0" encoding="UTF-8" standalone="no"?>
<!DOCTYPE svg PUBLIC "-//W3C//DTD SVG 1.1//EN"
 "http://www.w3.org/Graphics/SVG/1.1/DTD/svg11.dtd">
<!-- Generated by graphviz version 13.1.2 (20250808.2320)
 -->
<!-- Title: ScalingFlow_note Pages: 1 -->
<svg width="634pt" height="669pt"
 viewBox="0.00 0.00 634.00 669.00" xmlns="http://www.w3.org/2000/svg" xmlns:xlink="http://www.w3.org/1999/xlink">
<g id="graph0" class="graph" transform="scale(1 1) rotate(0) translate(4 665)">
<title>ScalingFlow_note</title>
<polygon fill="white" stroke="none" points="-4,4 -4,-665 629.5,-665 629.5,4 -4,4"/>
<g id="clust1" class="cluster">
<title>cluster_mac</title>
<polygon fill="lightgray" stroke="lightgray" points="52.12,-68.5 52.12,-410.5 215.12,-410.5 215.12,-68.5 52.12,-68.5"/>
<text xml:space="preserve" text-anchor="middle" x="133.62" y="-393.2" font-family="Times New Roman,serif" font-size="14.00">Tile MAC Array (scalable)</text>
</g>
<!-- DRAM -->
<g id="node1" class="node">
<title>DRAM</title>
<path fill="none" stroke="black" d="M195.25,-659.25C195.25,-659.25 75,-659.25 75,-659.25 69,-659.25 63,-653.25 63,-647.25 63,-647.25 63,-635.25 63,-635.25 63,-629.25 69,-623.25 75,-623.25 75,-623.25 195.25,-623.25 195.25,-623.25 201.25,-623.25 207.25,-629.25 207.25,-635.25 207.25,-635.25 207.25,-647.25 207.25,-647.25 207.25,-653.25 201.25,-659.25 195.25,-659.25"/>
<text xml:space="preserve" text-anchor="middle" x="135.12" y="-635.83" font-family="Helvetica,sans-Serif" font-size="14.00">External DRAM/HBM</text>
</g>
<!-- DMA -->
<g id="node2" class="node">
<title>DMA</title>
<path fill="none" stroke="black" d="M203.5,-584.5C203.5,-584.5 66.75,-584.5 66.75,-584.5 60.75,-584.5 54.75,-578.5 54.75,-572.5 54.75,-572.5 54.75,-557 54.75,-557 54.75,-551 60.75,-545 66.75,-545 66.75,-545 203.5,-545 203.5,-545 209.5,-545 215.5,-551 215.5,-557 215.5,-557 215.5,-572.5 215.5,-572.5 215.5,-578.5 209.5,-584.5 203.5,-584.5"/>
<text xml:space="preserve" text-anchor="middle" x="135.12" y="-567.2" font-family="Helvetica,sans-Serif" font-size="14.00">Async DMA Engine</text>
<text xml:space="preserve" text-anchor="middle" x="135.12" y="-551.45" font-family="Helvetica,sans-Serif" font-size="14.00">(prefetch, double&#45;buffer)</text>
</g>
<!-- DRAM&#45;&gt;DMA -->
<g id="edge4" class="edge">
<title>DRAM&#45;&gt;DMA</title>
<path fill="none" stroke="black" d="M135.12,-622.97C135.12,-615.02 135.12,-605.35 135.12,-596.23"/>
<polygon fill="black" stroke="black" points="138.63,-596.28 135.13,-586.28 131.63,-596.28 138.63,-596.28"/>
</g>
<!-- RF -->
<g id="node3" class="node">
<title>RF</title>
<path fill="none" stroke="black" d="M144.25,-492.5C144.25,-492.5 12,-492.5 12,-492.5 6,-492.5 0,-486.5 0,-480.5 0,-480.5 0,-465 0,-465 0,-459 6,-453 12,-453 12,-453 144.25,-453 144.25,-453 150.25,-453 156.25,-459 156.25,-465 156.25,-465 156.25,-480.5 156.25,-480.5 156.25,-486.5 150.25,-492.5 144.25,-492.5"/>
<text xml:space="preserve" text-anchor="middle" x="78.12" y="-475.2" font-family="Helvetica,sans-Serif" font-size="14.00">Tile Register File (TRF)</text>
<text xml:space="preserve" text-anchor="middle" x="78.12" y="-459.45" font-family="Helvetica,sans-Serif" font-size="14.00">32 tiles × 256B = 8KB</text>
</g>
<!-- DMA&#45;&gt;RF -->
<g id="edge5" class="edge">
<title>DMA&#45;&gt;RF</title>
<path fill="none" stroke="black" d="M93.79,-544.59C87.4,-539.77 81.67,-533.94 77.88,-527 74.14,-520.16 72.89,-512.04 72.9,-504.24"/>
<polygon fill="black" stroke="black" points="76.38,-504.57 73.6,-494.35 69.4,-504.07 76.38,-504.57"/>
<text xml:space="preserve" text-anchor="middle" x="128.5" y="-513.7" font-family="Times New Roman,serif" font-size="14.00">prefetch (optional)</text>
</g>
<!-- MAC0 -->
<g id="node4" class="node">
<title>MAC0</title>
<path fill="none" stroke="black" d="M188.75,-378C188.75,-378 101.5,-378 101.5,-378 95.5,-378 89.5,-372 89.5,-366 89.5,-366 89.5,-354 89.5,-354 89.5,-348 95.5,-342 101.5,-342 101.5,-342 188.75,-342 188.75,-342 194.75,-342 200.75,-348 200.75,-354 200.75,-354 200.75,-366 200.75,-366 200.75,-372 194.75,-378 188.75,-378"/>
<text xml:space="preserve" text-anchor="middle" x="145.12" y="-354.57" font-family="Helvetica,sans-Serif" font-size="14.00">Tile&#45;MAC Cell 0</text>
</g>
<!-- DMA&#45;&gt;MAC0 -->
<g id="edge6" class="edge">
<title>DMA&#45;&gt;MAC0</title>
<path fill="none" stroke="black" d="M165.49,-544.55C171.01,-539.56 176,-533.67 179.12,-527 186.1,-512.09 215.59,-556.05 178.12,-418.5 175.19,-407.73 169.75,-396.88 164.12,-387.54"/>
<polygon fill="black" stroke="black" points="167.21,-385.88 158.86,-379.36 161.32,-389.66 167.21,-385.88"/>
<text xml:space="preserve" text-anchor="middle" x="230.85" y="-467.7" font-family="Times New Roman,serif" font-size="14.00">direct stream</text>
</g>
<!-- RF&#45;&gt;MAC0 -->
<g id="edge7" class="edge">
<title>RF&#45;&gt;MAC0</title>
<path fill="none" stroke="black" stroke-dasharray="1,5" d="M89.49,-452.96C100.24,-435.2 116.48,-408.35 128.65,-388.23"/>
<polygon fill="black" stroke="black" points="131.62,-390.08 133.8,-379.71 125.63,-386.46 131.62,-390.08"/>
<text xml:space="preserve" text-anchor="middle" x="141.87" y="-421.7" font-family="Times New Roman,serif" font-size="14.00">cached feed</text>
</g>
<!-- MAC1 -->
<g id="node5" class="node">
<title>MAC1</title>
<path fill="none" stroke="black" d="M187.75,-289.5C187.75,-289.5 100.5,-289.5 100.5,-289.5 94.5,-289.5 88.5,-283.5 88.5,-277.5 88.5,-277.5 88.5,-265.5 88.5,-265.5 88.5,-259.5 94.5,-253.5 100.5,-253.5 100.5,-253.5 187.75,-253.5 187.75,-253.5 193.75,-253.5 199.75,-259.5 199.75,-265.5 199.75,-265.5 199.75,-277.5 199.75,-277.5 199.75,-283.5 193.75,-289.5 187.75,-289.5"/>
<text xml:space="preserve" text-anchor="middle" x="144.12" y="-266.07" font-family="Helvetica,sans-Serif" font-size="14.00">Tile&#45;MAC Cell 1</text>
</g>
<!-- MAC0&#45;&gt;MAC1 -->
<g id="edge1" class="edge">
<title>MAC0&#45;&gt;MAC1</title>
<path fill="none" stroke="black" d="M144.93,-341.91C144.79,-330.26 144.61,-314.55 144.45,-301.02"/>
<polygon fill="black" stroke="black" points="147.96,-301.32 144.34,-291.36 140.96,-301.4 147.96,-301.32"/>
<text xml:space="preserve" text-anchor="middle" x="178.84" y="-310.7" font-family="Times New Roman,serif" font-size="14.00">systolic feed</text>
</g>
<!-- OUT -->
<g id="node8" class="node">
<title>OUT</title>
<path fill="none" stroke="black" d="M270.62,-39.5C270.62,-39.5 191.62,-39.5 191.62,-39.5 185.62,-39.5 179.62,-33.5 179.62,-27.5 179.62,-27.5 179.62,-12 179.62,-12 179.62,-6 185.62,0 191.62,0 191.62,0 270.62,0 270.62,0 276.62,0 282.62,-6 282.62,-12 282.62,-12 282.62,-27.5 282.62,-27.5 282.62,-33.5 276.62,-39.5 270.62,-39.5"/>
<text xml:space="preserve" text-anchor="middle" x="231.12" y="-22.2" font-family="Helvetica,sans-Serif" font-size="14.00">Result Spill</text>
<text xml:space="preserve" text-anchor="middle" x="231.12" y="-6.45" font-family="Helvetica,sans-Serif" font-size="14.00">(DRAM or RF)</text>
</g>
<!-- MAC0&#45;&gt;OUT -->
<g id="edge8" class="edge">
<title>MAC0&#45;&gt;OUT</title>
<path fill="none" stroke="black" d="M201.23,-348.39C241.29,-337.19 288.12,-315.01 288.12,-272.5 288.12,-272.5 288.12,-272.5 288.12,-93.5 288.12,-75.86 277.62,-59.96 265.62,-47.55"/>
<polygon fill="black" stroke="black" points="268.37,-45.33 258.72,-40.96 263.54,-50.4 268.37,-45.33"/>
</g>
<!-- MACx -->
<g id="node6" class="node">
<title>MACx</title>
<path fill="none" stroke="black" d="M189.62,-201C189.62,-201 98.62,-201 98.62,-201 92.62,-201 86.62,-195 86.62,-189 86.62,-189 86.62,-177 86.62,-177 86.62,-171 92.62,-165 98.62,-165 98.62,-165 189.62,-165 189.62,-165 195.62,-165 201.62,-171 201.62,-177 201.62,-177 201.62,-189 201.62,-189 201.62,-195 195.62,-201 189.62,-201"/>
<text xml:space="preserve" text-anchor="middle" x="144.12" y="-177.57" font-family="Helvetica,sans-Serif" font-size="14.00">Tile&#45;MAC Cell ...</text>
</g>
<!-- MAC1&#45;&gt;MACx -->
<g id="edge2" class="edge">
<title>MAC1&#45;&gt;MACx</title>
<path fill="none" stroke="black" d="M144.12,-253.41C144.12,-241.76 144.12,-226.05 144.12,-212.52"/>
<polygon fill="black" stroke="black" points="147.63,-212.86 144.13,-202.86 140.63,-212.86 147.63,-212.86"/>
<text xml:space="preserve" text-anchor="middle" x="149.75" y="-222.2" font-family="Times New Roman,serif" font-size="14.00">...</text>
</g>
<!-- MAC1&#45;&gt;OUT -->
<g id="edge9" class="edge">
<title>MAC1&#45;&gt;OUT</title>
<path fill="none" stroke="black" d="M167.21,-253.04C182.25,-240.33 200.93,-221.76 211.12,-201 234.93,-152.55 235.82,-88.15 233.81,-50.9"/>
<polygon fill="black" stroke="black" points="237.33,-51.07 233.18,-41.32 230.35,-51.53 237.33,-51.07"/>
</g>
<!-- MACn -->
<g id="node7" class="node">
<title>MACn</title>
<path fill="none" stroke="black" d="M172.5,-112.5C172.5,-112.5 71.75,-112.5 71.75,-112.5 65.75,-112.5 59.75,-106.5 59.75,-100.5 59.75,-100.5 59.75,-88.5 59.75,-88.5 59.75,-82.5 65.75,-76.5 71.75,-76.5 71.75,-76.5 172.5,-76.5 172.5,-76.5 178.5,-76.5 184.5,-82.5 184.5,-88.5 184.5,-88.5 184.5,-100.5 184.5,-100.5 184.5,-106.5 178.5,-112.5 172.5,-112.5"/>
<text xml:space="preserve" text-anchor="middle" x="122.12" y="-89.08" font-family="Helvetica,sans-Serif" font-size="14.00">Tile&#45;MAC Cell P&#45;1</text>
</g>
<!-- MACx&#45;&gt;MACn -->
<g id="edge3" class="edge">
<title>MACx&#45;&gt;MACn</title>
<path fill="none" stroke="black" d="M139.78,-164.91C136.78,-153.14 132.74,-137.23 129.27,-123.61"/>
<polygon fill="black" stroke="black" points="132.77,-123.15 126.91,-114.32 125.98,-124.87 132.77,-123.15"/>
<text xml:space="preserve" text-anchor="middle" x="140.72" y="-133.7" font-family="Times New Roman,serif" font-size="14.00">...</text>
</g>
<!-- MACx&#45;&gt;OUT -->
<g id="edge10" class="edge">
<title>MACx&#45;&gt;OUT</title>
<path fill="none" stroke="black" d="M157.95,-164.71C168.45,-151.06 182.8,-131.25 193.12,-112.5 204.08,-92.61 213.81,-68.91 220.69,-50.58"/>
<polygon fill="black" stroke="black" points="223.91,-51.96 224.07,-41.36 217.34,-49.55 223.91,-51.96"/>
</g>
<!-- MACn&#45;&gt;OUT -->
<g id="edge11" class="edge">
<title>MACn&#45;&gt;OUT</title>
<path fill="none" stroke="black" d="M148.23,-76.07C161.67,-67.11 178.29,-56.01 193.12,-46.12"/>
<polygon fill="black" stroke="black" points="194.92,-49.12 201.29,-40.66 191.03,-43.3 194.92,-49.12"/>
</g>
<!-- NOTE1 -->
<g id="node9" class="node">
<title>NOTE1</title>
<polygon fill="none" stroke="black" points="410.88,-661 225.38,-661 225.38,-621.5 416.88,-621.5 416.88,-655 410.88,-661"/>
<polyline fill="none" stroke="black" points="410.88,-661 410.88,-655"/>
<polyline fill="none" stroke="black" points="416.88,-655 410.88,-655"/>
<text xml:space="preserve" text-anchor="middle" x="321.12" y="-643.7" font-family="Helvetica,sans-Serif" font-size="14.00">cells_parallel = P</text>
<text xml:space="preserve" text-anchor="middle" x="321.12" y="-627.95" font-family="Helvetica,sans-Serif" font-size="14.00">(#MAC tiles active in parallel)</text>
</g>
<!-- NOTE2 -->
<g id="node10" class="node">
<title>NOTE2</title>
<polygon fill="none" stroke="black" points="619.5,-661 434.75,-661 434.75,-621.5 625.5,-621.5 625.5,-655 619.5,-661"/>
<polyline fill="none" stroke="black" points="619.5,-661 619.5,-655"/>
<polyline fill="none" stroke="black" points="625.5,-655 619.5,-655"/>
<text xml:space="preserve" text-anchor="middle" x="530.12" y="-643.7" font-family="Helvetica,sans-Serif" font-size="14.00">TRF ports ≥2R/1W sustained</text>
<text xml:space="preserve" text-anchor="middle" x="530.12" y="-627.95" font-family="Helvetica,sans-Serif" font-size="14.00">(see Appendix C)</text>
</g>
</g>
</svg>
