<?xml version="1.0" encoding="UTF-8" standalone="no"?>
<!DOCTYPE svg PUBLIC "-//W3C//DTD SVG 1.1//EN"
 "http://www.w3.org/Graphics/SVG/1.1/DTD/svg11.dtd">
<!-- Generated by graphviz version 13.1.2 (20250808.2320)
 -->
<!-- Title: TRF_Access Pages: 1 -->
<svg width="924pt" height="671pt"
 viewBox="0.00 0.00 924.00 671.00" xmlns="http://www.w3.org/2000/svg" xmlns:xlink="http://www.w3.org/1999/xlink">
<g id="graph0" class="graph" transform="scale(1 1) rotate(0) translate(4 666.62)">
<title>TRF_Access</title>
<polygon fill="white" stroke="none" points="-4,4 -4,-666.62 920.25,-666.62 920.25,4 -4,4"/>
<text xml:space="preserve" text-anchor="middle" x="458.12" y="-645.33" font-family="Times New Roman,serif" font-size="14.00">Tile Register File (TRF) 2R/1W Access Flow (32 tiles × 256B, ≥2R/1W)</text>
<g id="clust1" class="cluster">
<title>cluster_issue</title>
<polygon fill="none" stroke="gray" stroke-dasharray="5,2" points="99,-465.75 99,-630.12 439,-630.12 439,-465.75 99,-465.75"/>
<text xml:space="preserve" text-anchor="middle" x="269" y="-612.83" font-family="Times New Roman,serif" font-size="14.00">Frontend / Issue</text>
</g>
<g id="clust2" class="cluster">
<title>cluster_trf</title>
<polygon fill="lightgray" stroke="lightgray" points="8,-212.25 8,-431.25 541,-431.25 541,-212.25 8,-212.25"/>
<text xml:space="preserve" text-anchor="middle" x="274.5" y="-413.95" font-family="Times New Roman,serif" font-size="14.00">TRF (Multi&#45;bank)</text>
<text xml:space="preserve" text-anchor="middle" x="274.5" y="-397.45" font-family="Times New Roman,serif" font-size="14.00">32 tiles × 256B = 8KB</text>
</g>
<g id="clust3" class="cluster">
<title>cluster_banks</title>
<path fill="none" stroke="white" d="M28,-220.25C28,-220.25 521,-220.25 521,-220.25 527,-220.25 533,-226.25 533,-232.25 533,-232.25 533,-288.25 533,-288.25 533,-294.25 527,-300.25 521,-300.25 521,-300.25 28,-300.25 28,-300.25 22,-300.25 16,-294.25 16,-288.25 16,-288.25 16,-232.25 16,-232.25 16,-226.25 22,-220.25 28,-220.25"/>
<text xml:space="preserve" text-anchor="middle" x="274.5" y="-282.95" font-family="Times New Roman,serif" font-size="14.00">Banks (example: NBANKS=4)</text>
</g>
<g id="clust4" class="cluster">
<title>cluster_mac</title>
<path fill="none" stroke="lightyellow" d="M213,-84C213,-84 323,-84 323,-84 329,-84 335,-90 335,-96 335,-96 335,-167.75 335,-167.75 335,-173.75 329,-179.75 323,-179.75 323,-179.75 213,-179.75 213,-179.75 207,-179.75 201,-173.75 201,-167.75 201,-167.75 201,-96 201,-96 201,-90 207,-84 213,-84"/>
<text xml:space="preserve" text-anchor="middle" x="268" y="-162.45" font-family="Times New Roman,serif" font-size="14.00">Tile MAC Array</text>
</g>
<!-- AID -->
<g id="node1" class="node">
<title>AID</title>
<path fill="none" stroke="black" d="M174.25,-597.62C174.25,-597.62 135.75,-597.62 135.75,-597.62 129.75,-597.62 123.75,-591.62 123.75,-585.62 123.75,-585.62 123.75,-570.12 123.75,-570.12 123.75,-564.12 129.75,-558.12 135.75,-558.12 135.75,-558.12 174.25,-558.12 174.25,-558.12 180.25,-558.12 186.25,-564.12 186.25,-570.12 186.25,-570.12 186.25,-585.62 186.25,-585.62 186.25,-591.62 180.25,-597.62 174.25,-597.62"/>
<text xml:space="preserve" text-anchor="middle" x="155" y="-580.33" font-family="Helvetica,sans-Serif" font-size="14.00">A tile ID</text>
<text xml:space="preserve" text-anchor="middle" x="155" y="-564.58" font-family="Helvetica,sans-Serif" font-size="14.00">(R0)</text>
</g>
<!-- R0AGU -->
<g id="node4" class="node">
<title>R0AGU</title>
<path fill="none" stroke="black" d="M190.75,-513.25C190.75,-513.25 119.25,-513.25 119.25,-513.25 113.25,-513.25 107.25,-507.25 107.25,-501.25 107.25,-501.25 107.25,-485.75 107.25,-485.75 107.25,-479.75 113.25,-473.75 119.25,-473.75 119.25,-473.75 190.75,-473.75 190.75,-473.75 196.75,-473.75 202.75,-479.75 202.75,-485.75 202.75,-485.75 202.75,-501.25 202.75,-501.25 202.75,-507.25 196.75,-513.25 190.75,-513.25"/>
<text xml:space="preserve" text-anchor="middle" x="155" y="-495.95" font-family="Helvetica,sans-Serif" font-size="14.00">AGU(R0)</text>
<text xml:space="preserve" text-anchor="middle" x="155" y="-480.2" font-family="Helvetica,sans-Serif" font-size="14.00">row/col/stride</text>
</g>
<!-- AID&#45;&gt;R0AGU -->
<g id="edge1" class="edge">
<title>AID&#45;&gt;R0AGU</title>
<path fill="none" stroke="black" d="M155,-557.77C155,-548 155,-535.87 155,-524.85"/>
<polygon fill="black" stroke="black" points="158.5,-525.02 155,-515.02 151.5,-525.02 158.5,-525.02"/>
</g>
<!-- BID -->
<g id="node2" class="node">
<title>BID</title>
<path fill="none" stroke="black" d="M288.62,-597.62C288.62,-597.62 249.38,-597.62 249.38,-597.62 243.38,-597.62 237.38,-591.62 237.38,-585.62 237.38,-585.62 237.38,-570.12 237.38,-570.12 237.38,-564.12 243.38,-558.12 249.38,-558.12 249.38,-558.12 288.62,-558.12 288.62,-558.12 294.62,-558.12 300.62,-564.12 300.62,-570.12 300.62,-570.12 300.62,-585.62 300.62,-585.62 300.62,-591.62 294.62,-597.62 288.62,-597.62"/>
<text xml:space="preserve" text-anchor="middle" x="269" y="-580.33" font-family="Helvetica,sans-Serif" font-size="14.00">B tile ID</text>
<text xml:space="preserve" text-anchor="middle" x="269" y="-564.58" font-family="Helvetica,sans-Serif" font-size="14.00">(R1)</text>
</g>
<!-- R1AGU -->
<g id="node5" class="node">
<title>R1AGU</title>
<path fill="none" stroke="black" d="M304.75,-513.25C304.75,-513.25 233.25,-513.25 233.25,-513.25 227.25,-513.25 221.25,-507.25 221.25,-501.25 221.25,-501.25 221.25,-485.75 221.25,-485.75 221.25,-479.75 227.25,-473.75 233.25,-473.75 233.25,-473.75 304.75,-473.75 304.75,-473.75 310.75,-473.75 316.75,-479.75 316.75,-485.75 316.75,-485.75 316.75,-501.25 316.75,-501.25 316.75,-507.25 310.75,-513.25 304.75,-513.25"/>
<text xml:space="preserve" text-anchor="middle" x="269" y="-495.95" font-family="Helvetica,sans-Serif" font-size="14.00">AGU(R1)</text>
<text xml:space="preserve" text-anchor="middle" x="269" y="-480.2" font-family="Helvetica,sans-Serif" font-size="14.00">row/col/stride</text>
</g>
<!-- BID&#45;&gt;R1AGU -->
<g id="edge2" class="edge">
<title>BID&#45;&gt;R1AGU</title>
<path fill="none" stroke="black" d="M269,-557.77C269,-548 269,-535.87 269,-524.85"/>
<polygon fill="black" stroke="black" points="272.5,-525.02 269,-515.02 265.5,-525.02 272.5,-525.02"/>
</g>
<!-- CID -->
<g id="node3" class="node">
<title>CID</title>
<path fill="none" stroke="black" d="M403,-597.62C403,-597.62 363,-597.62 363,-597.62 357,-597.62 351,-591.62 351,-585.62 351,-585.62 351,-570.12 351,-570.12 351,-564.12 357,-558.12 363,-558.12 363,-558.12 403,-558.12 403,-558.12 409,-558.12 415,-564.12 415,-570.12 415,-570.12 415,-585.62 415,-585.62 415,-591.62 409,-597.62 403,-597.62"/>
<text xml:space="preserve" text-anchor="middle" x="383" y="-580.33" font-family="Helvetica,sans-Serif" font-size="14.00">C tile ID</text>
<text xml:space="preserve" text-anchor="middle" x="383" y="-564.58" font-family="Helvetica,sans-Serif" font-size="14.00">(W)</text>
</g>
<!-- WAGU -->
<g id="node6" class="node">
<title>WAGU</title>
<path fill="none" stroke="black" d="M418.75,-513.25C418.75,-513.25 347.25,-513.25 347.25,-513.25 341.25,-513.25 335.25,-507.25 335.25,-501.25 335.25,-501.25 335.25,-485.75 335.25,-485.75 335.25,-479.75 341.25,-473.75 347.25,-473.75 347.25,-473.75 418.75,-473.75 418.75,-473.75 424.75,-473.75 430.75,-479.75 430.75,-485.75 430.75,-485.75 430.75,-501.25 430.75,-501.25 430.75,-507.25 424.75,-513.25 418.75,-513.25"/>
<text xml:space="preserve" text-anchor="middle" x="383" y="-495.95" font-family="Helvetica,sans-Serif" font-size="14.00">AGU(W)</text>
<text xml:space="preserve" text-anchor="middle" x="383" y="-480.2" font-family="Helvetica,sans-Serif" font-size="14.00">row/col/stride</text>
</g>
<!-- CID&#45;&gt;WAGU -->
<g id="edge3" class="edge">
<title>CID&#45;&gt;WAGU</title>
<path fill="none" stroke="black" d="M383,-557.77C383,-548 383,-535.87 383,-524.85"/>
<polygon fill="black" stroke="black" points="386.5,-525.02 383,-515.02 379.5,-525.02 386.5,-525.02"/>
</g>
<!-- DEC -->
<g id="node7" class="node">
<title>DEC</title>
<path fill="none" stroke="black" d="M354.62,-382.25C354.62,-382.25 183.38,-382.25 183.38,-382.25 177.38,-382.25 171.38,-376.25 171.38,-370.25 171.38,-370.25 171.38,-354.75 171.38,-354.75 171.38,-348.75 177.38,-342.75 183.38,-342.75 183.38,-342.75 354.62,-342.75 354.62,-342.75 360.62,-342.75 366.62,-348.75 366.62,-354.75 366.62,-354.75 366.62,-370.25 366.62,-370.25 366.62,-376.25 360.62,-382.25 354.62,-382.25"/>
<text xml:space="preserve" text-anchor="middle" x="269" y="-364.95" font-family="Helvetica,sans-Serif" font-size="14.00">Bank Decoder / Interleave</text>
<text xml:space="preserve" text-anchor="middle" x="269" y="-349.2" font-family="Helvetica,sans-Serif" font-size="14.00">bank = (tile_id mod NBANKS)</text>
</g>
<!-- R0AGU&#45;&gt;DEC -->
<g id="edge4" class="edge">
<title>R0AGU&#45;&gt;DEC</title>
<path fill="none" stroke="black" d="M171.82,-473.47C191.02,-451.74 222.58,-416.02 244.51,-391.21"/>
<polygon fill="black" stroke="black" points="247.11,-393.56 251.11,-383.75 241.86,-388.92 247.11,-393.56"/>
<text xml:space="preserve" text-anchor="middle" x="226.16" y="-442.45" font-family="Times New Roman,serif" font-size="14.00">addr(R0)</text>
</g>
<!-- R1AGU&#45;&gt;DEC -->
<g id="edge5" class="edge">
<title>R1AGU&#45;&gt;DEC</title>
<path fill="none" stroke="black" d="M269,-473.47C269,-452.51 269,-418.51 269,-393.86"/>
<polygon fill="black" stroke="black" points="272.5,-394.13 269,-384.13 265.5,-394.13 272.5,-394.13"/>
<text xml:space="preserve" text-anchor="middle" x="293.38" y="-442.45" font-family="Times New Roman,serif" font-size="14.00">addr(R1)</text>
</g>
<!-- WAGU&#45;&gt;DEC -->
<g id="edge6" class="edge">
<title>WAGU&#45;&gt;DEC</title>
<path fill="none" stroke="black" d="M366.18,-473.47C346.98,-451.74 315.42,-416.02 293.49,-391.21"/>
<polygon fill="black" stroke="black" points="296.14,-388.92 286.89,-383.75 290.89,-393.56 296.14,-388.92"/>
<text xml:space="preserve" text-anchor="middle" x="372.56" y="-442.45" font-family="Times New Roman,serif" font-size="14.00">addr(W)</text>
</g>
<!-- B0 -->
<g id="node8" class="node">
<title>B0</title>
<path fill="none" stroke="black" d="M120.12,-267.75C120.12,-267.75 35.88,-267.75 35.88,-267.75 29.88,-267.75 23.88,-261.75 23.88,-255.75 23.88,-255.75 23.88,-240.25 23.88,-240.25 23.88,-234.25 29.88,-228.25 35.88,-228.25 35.88,-228.25 120.12,-228.25 120.12,-228.25 126.12,-228.25 132.12,-234.25 132.12,-240.25 132.12,-240.25 132.12,-255.75 132.12,-255.75 132.12,-261.75 126.12,-267.75 120.12,-267.75"/>
<text xml:space="preserve" text-anchor="middle" x="78" y="-250.45" font-family="Helvetica,sans-Serif" font-size="14.00">Bank0</text>
<text xml:space="preserve" text-anchor="middle" x="78" y="-234.7" font-family="Helvetica,sans-Serif" font-size="14.00">Tiles: t0,t4,t8,...</text>
</g>
<!-- DEC&#45;&gt;B0 -->
<g id="edge7" class="edge">
<title>DEC&#45;&gt;B0</title>
<path fill="none" stroke="black" d="M221.51,-342.34C196.68,-331.46 166.29,-316.72 141,-300.25 129.67,-292.87 117.99,-283.82 107.81,-275.4"/>
<polygon fill="black" stroke="black" points="110.35,-272.97 100.45,-269.19 105.83,-278.31 110.35,-272.97"/>
<text xml:space="preserve" text-anchor="middle" x="204.05" y="-311.45" font-family="Times New Roman,serif" font-size="14.00">bank sel</text>
</g>
<!-- B1 -->
<g id="node9" class="node">
<title>B1</title>
<path fill="none" stroke="black" d="M246.12,-267.75C246.12,-267.75 161.88,-267.75 161.88,-267.75 155.88,-267.75 149.88,-261.75 149.88,-255.75 149.88,-255.75 149.88,-240.25 149.88,-240.25 149.88,-234.25 155.88,-228.25 161.88,-228.25 161.88,-228.25 246.12,-228.25 246.12,-228.25 252.12,-228.25 258.12,-234.25 258.12,-240.25 258.12,-240.25 258.12,-255.75 258.12,-255.75 258.12,-261.75 252.12,-267.75 246.12,-267.75"/>
<text xml:space="preserve" text-anchor="middle" x="204" y="-250.45" font-family="Helvetica,sans-Serif" font-size="14.00">Bank1</text>
<text xml:space="preserve" text-anchor="middle" x="204" y="-234.7" font-family="Helvetica,sans-Serif" font-size="14.00">Tiles: t1,t5,t9,...</text>
</g>
<!-- DEC&#45;&gt;B1 -->
<g id="edge8" class="edge">
<title>DEC&#45;&gt;B1</title>
<path fill="none" stroke="black" d="M257.97,-342.42C247.8,-324.8 232.53,-298.38 220.83,-278.13"/>
<polygon fill="black" stroke="black" points="223.87,-276.4 215.84,-269.49 217.81,-279.9 223.87,-276.4"/>
</g>
<!-- B2 -->
<g id="node10" class="node">
<title>B2</title>
<path fill="none" stroke="black" d="M379.88,-267.75C379.88,-267.75 288.12,-267.75 288.12,-267.75 282.12,-267.75 276.12,-261.75 276.12,-255.75 276.12,-255.75 276.12,-240.25 276.12,-240.25 276.12,-234.25 282.12,-228.25 288.12,-228.25 288.12,-228.25 379.88,-228.25 379.88,-228.25 385.88,-228.25 391.88,-234.25 391.88,-240.25 391.88,-240.25 391.88,-255.75 391.88,-255.75 391.88,-261.75 385.88,-267.75 379.88,-267.75"/>
<text xml:space="preserve" text-anchor="middle" x="334" y="-250.45" font-family="Helvetica,sans-Serif" font-size="14.00">Bank2</text>
<text xml:space="preserve" text-anchor="middle" x="334" y="-234.7" font-family="Helvetica,sans-Serif" font-size="14.00">Tiles: t2,t6,t10,...</text>
</g>
<!-- DEC&#45;&gt;B2 -->
<g id="edge9" class="edge">
<title>DEC&#45;&gt;B2</title>
<path fill="none" stroke="black" d="M280.03,-342.42C290.2,-324.8 305.47,-298.38 317.17,-278.13"/>
<polygon fill="black" stroke="black" points="320.19,-279.9 322.16,-269.49 314.13,-276.4 320.19,-279.9"/>
</g>
<!-- B3 -->
<g id="node11" class="node">
<title>B3</title>
<path fill="none" stroke="black" d="M512.5,-267.75C512.5,-267.75 421.5,-267.75 421.5,-267.75 415.5,-267.75 409.5,-261.75 409.5,-255.75 409.5,-255.75 409.5,-240.25 409.5,-240.25 409.5,-234.25 415.5,-228.25 421.5,-228.25 421.5,-228.25 512.5,-228.25 512.5,-228.25 518.5,-228.25 524.5,-234.25 524.5,-240.25 524.5,-240.25 524.5,-255.75 524.5,-255.75 524.5,-261.75 518.5,-267.75 512.5,-267.75"/>
<text xml:space="preserve" text-anchor="middle" x="467" y="-250.45" font-family="Helvetica,sans-Serif" font-size="14.00">Bank3</text>
<text xml:space="preserve" text-anchor="middle" x="467" y="-234.7" font-family="Helvetica,sans-Serif" font-size="14.00">Tiles: t3,t7,t11,...</text>
</g>
<!-- DEC&#45;&gt;B3 -->
<g id="edge10" class="edge">
<title>DEC&#45;&gt;B3</title>
<path fill="none" stroke="black" d="M317.07,-342.31C342.7,-331.31 374.36,-316.49 401,-300.25 413.1,-292.88 425.57,-283.67 436.37,-275.1"/>
<polygon fill="black" stroke="black" points="438.26,-278.08 443.83,-269.06 433.85,-272.64 438.26,-278.08"/>
</g>
<!-- MAC -->
<g id="node12" class="node">
<title>MAC</title>
<path fill="none" stroke="black" d="M314.62,-147.25C314.62,-147.25 221.38,-147.25 221.38,-147.25 215.38,-147.25 209.38,-141.25 209.38,-135.25 209.38,-135.25 209.38,-104 209.38,-104 209.38,-98 215.38,-92 221.38,-92 221.38,-92 314.62,-92 314.62,-92 320.62,-92 326.62,-98 326.62,-104 326.62,-104 326.62,-135.25 326.62,-135.25 326.62,-141.25 320.62,-147.25 314.62,-147.25"/>
<text xml:space="preserve" text-anchor="middle" x="268" y="-129.95" font-family="Helvetica,sans-Serif" font-size="14.00">MAC Cell(s)</text>
<text xml:space="preserve" text-anchor="middle" x="268" y="-114.2" font-family="Helvetica,sans-Serif" font-size="14.00">consume: R0,R1</text>
<text xml:space="preserve" text-anchor="middle" x="268" y="-98.45" font-family="Helvetica,sans-Serif" font-size="14.00">produce: W</text>
</g>
<!-- B0&#45;&gt;MAC -->
<g id="edge11" class="edge">
<title>B0&#45;&gt;MAC</title>
<path fill="none" stroke="black" d="M104.07,-227.95C120.41,-216.14 142,-200.8 161.5,-187.75 178.43,-176.42 197.15,-164.44 214.11,-153.79"/>
<polygon fill="black" stroke="black" points="215.96,-156.76 222.59,-148.49 212.25,-150.83 215.96,-156.76"/>
<text xml:space="preserve" text-anchor="middle" x="192.25" y="-190.95" font-family="Times New Roman,serif" font-size="14.00">R0/R1 data</text>
</g>
<!-- B1&#45;&gt;MAC -->
<g id="edge12" class="edge">
<title>B1&#45;&gt;MAC</title>
<path fill="none" stroke="black" d="M213.72,-227.81C223.12,-209.24 237.61,-180.63 249.26,-157.63"/>
<polygon fill="black" stroke="black" points="252.3,-159.37 253.7,-148.87 246.06,-156.21 252.3,-159.37"/>
<text xml:space="preserve" text-anchor="middle" x="262.92" y="-190.95" font-family="Times New Roman,serif" font-size="14.00">R0/R1 data</text>
</g>
<!-- B2&#45;&gt;MAC -->
<g id="edge13" class="edge">
<title>B2&#45;&gt;MAC</title>
<path fill="none" stroke="black" d="M323.98,-227.81C314.28,-209.24 299.34,-180.63 287.33,-157.63"/>
<polygon fill="black" stroke="black" points="290.48,-156.1 282.74,-148.86 284.27,-159.34 290.48,-156.1"/>
<text xml:space="preserve" text-anchor="middle" x="341.52" y="-190.95" font-family="Times New Roman,serif" font-size="14.00">R0/R1 data</text>
</g>
<!-- B3&#45;&gt;MAC -->
<g id="edge14" class="edge">
<title>B3&#45;&gt;MAC</title>
<path fill="none" stroke="black" d="M438,-227.9C420.18,-216.21 396.84,-201.01 376,-187.75 358.32,-176.5 338.9,-164.37 321.47,-153.55"/>
<polygon fill="black" stroke="black" points="323.64,-150.78 313.29,-148.48 319.95,-156.73 323.64,-150.78"/>
<text xml:space="preserve" text-anchor="middle" x="431.85" y="-190.95" font-family="Times New Roman,serif" font-size="14.00">R0/R1 data</text>
</g>
<!-- OUT -->
<g id="node13" class="node">
<title>OUT</title>
<path fill="white" stroke="black" d="M321,-39.5C321,-39.5 215,-39.5 215,-39.5 209,-39.5 203,-33.5 203,-27.5 203,-27.5 203,-12 203,-12 203,-6 209,0 215,0 215,0 321,0 321,0 327,0 333,-6 333,-12 333,-12 333,-27.5 333,-27.5 333,-33.5 327,-39.5 321,-39.5"/>
<text xml:space="preserve" text-anchor="middle" x="268" y="-22.2" font-family="Helvetica,sans-Serif" font-size="14.00">C tile update</text>
<text xml:space="preserve" text-anchor="middle" x="268" y="-6.45" font-family="Helvetica,sans-Serif" font-size="14.00">(Writeback to TRF)</text>
</g>
<!-- MAC&#45;&gt;OUT -->
<g id="edge15" class="edge">
<title>MAC&#45;&gt;OUT</title>
<path fill="none" stroke="black" stroke-width="2" d="M268,-91.62C268,-79.06 268,-64.06 268,-51.11"/>
<polygon fill="black" stroke="black" stroke-width="2" points="271.5,-52.94 268,-42.94 264.5,-52.94 271.5,-52.94"/>
<text xml:space="preserve" text-anchor="middle" x="287.5" y="-60.7" font-family="Times New Roman,serif" font-size="14.00">W data</text>
</g>
<!-- NOTE1 -->
<g id="node14" class="node">
<title>NOTE1</title>
<polygon fill="none" stroke="black" points="649.38,-605.5 446.62,-605.5 446.62,-550.25 655.38,-550.25 655.38,-599.5 649.38,-605.5"/>
<polyline fill="none" stroke="black" points="649.38,-605.5 649.38,-599.5"/>
<polyline fill="none" stroke="black" points="655.38,-599.5 649.38,-599.5"/>
<text xml:space="preserve" text-anchor="middle" x="551" y="-588.2" font-family="Helvetica,sans-Serif" font-size="14.00">≥2R/1W per cycle:</text>
<text xml:space="preserve" text-anchor="middle" x="551" y="-572.45" font-family="Helvetica,sans-Serif" font-size="14.00">A,B tiles read in parallel (R0,R1)</text>
<text xml:space="preserve" text-anchor="middle" x="551" y="-556.7" font-family="Helvetica,sans-Serif" font-size="14.00">C tile accumulated (W)</text>
</g>
<!-- NOTE2 -->
<g id="node15" class="node">
<title>NOTE2</title>
<polygon fill="none" stroke="black" points="910.25,-605.5 673.75,-605.5 673.75,-550.25 916.25,-550.25 916.25,-599.5 910.25,-605.5"/>
<polyline fill="none" stroke="black" points="910.25,-605.5 910.25,-599.5"/>
<polyline fill="none" stroke="black" points="916.25,-599.5 910.25,-599.5"/>
<text xml:space="preserve" text-anchor="middle" x="795" y="-588.2" font-family="Helvetica,sans-Serif" font-size="14.00">Conflict&#45;free via banking &amp; AGU:</text>
<text xml:space="preserve" text-anchor="middle" x="795" y="-572.45" font-family="Helvetica,sans-Serif" font-size="14.00">R0,R1,W go to different banks ideally.</text>
<text xml:space="preserve" text-anchor="middle" x="795" y="-556.7" font-family="Helvetica,sans-Serif" font-size="14.00">If collide, internal mux/1&#45;cycle skid.</text>
</g>
</g>
</svg>
