<?xml version="1.0" encoding="UTF-8" standalone="no"?>
<!DOCTYPE svg PUBLIC "-//W3C//DTD SVG 1.1//EN"
 "http://www.w3.org/Graphics/SVG/1.1/DTD/svg11.dtd">
<!-- Generated by graphviz version 13.1.2 (20250808.2320)
 -->
<!-- Title: PQC_Scramble Pages: 1 -->
<svg width="1367pt" height="487pt"
 viewBox="0.00 0.00 1367.00 487.00" xmlns="http://www.w3.org/2000/svg" xmlns:xlink="http://www.w3.org/1999/xlink">
<g id="graph0" class="graph" transform="scale(1 1) rotate(0) translate(4 482.75)">
<title>PQC_Scramble</title>
<polygon fill="#ffffff" stroke="none" points="-4,4 -4,-482.75 1363,-482.75 1363,4 -4,4"/>
<text xml:space="preserve" text-anchor="middle" x="679.5" y="-459.55" font-family="NanumGothic Bold" font-size="16.00">Flowchart: FNV&#45;1a Scramble / Descramble Path</text>
<g id="clust1" class="cluster">
<title>cluster_IO</title>
<path fill="#e8f7fc" stroke="#2b88d8" stroke-width="1.4" d="M20,-354.88C20,-354.88 206,-354.88 206,-354.88 212,-354.88 218,-360.88 218,-366.88 218,-366.88 218,-423.12 218,-423.12 218,-429.12 212,-435.12 206,-435.12 206,-435.12 20,-435.12 20,-435.12 14,-435.12 8,-429.12 8,-423.12 8,-423.12 8,-366.88 8,-366.88 8,-360.88 14,-354.88 20,-354.88"/>
<text xml:space="preserve" text-anchor="middle" x="113" y="-415.93" font-family="NanumGothic Bold" font-size="16.00">Data I/O RAM</text>
</g>
<g id="clust2" class="cluster">
<title>cluster_scratch</title>
<path fill="#e8f7fc" stroke="#2b88d8" stroke-width="1.4" d="M170,-114.75C170,-114.75 654,-114.75 654,-114.75 660,-114.75 666,-120.75 666,-126.75 666,-126.75 666,-294 666,-294 666,-300 660,-306 654,-306 654,-306 170,-306 170,-306 164,-306 158,-300 158,-294 158,-294 158,-126.75 158,-126.75 158,-120.75 164,-114.75 170,-114.75"/>
<text xml:space="preserve" text-anchor="middle" x="412" y="-286.8" font-family="NanumGothic Bold" font-size="16.00">Scratchpad SRAM or RegisterFile (for synchronous operation)</text>
</g>
<g id="clust3" class="cluster">
<title>cluster_pqc</title>
<path fill="#f6f6f6" stroke="#8a8a8a" stroke-width="1.2" d="M919,-8C919,-8 1051,-8 1051,-8 1057,-8 1063,-14 1063,-20 1063,-20 1063,-430.5 1063,-430.5 1063,-436.5 1057,-442.5 1051,-442.5 1051,-442.5 919,-442.5 919,-442.5 913,-442.5 907,-436.5 907,-430.5 907,-430.5 907,-20 907,-20 907,-14 913,-8 919,-8"/>
<text xml:space="preserve" text-anchor="middle" x="985" y="-423.3" font-family="NanumGothic Bold" font-size="16.00">PQC Cluster</text>
</g>
<g id="clust4" class="cluster">
<title>cluster_legend</title>
<path fill="#f9f9f9" stroke="#888888" d="M1109,-116.88C1109,-116.88 1339,-116.88 1339,-116.88 1345,-116.88 1351,-122.88 1351,-128.88 1351,-128.88 1351,-423.12 1351,-423.12 1351,-429.12 1345,-435.12 1339,-435.12 1339,-435.12 1109,-435.12 1109,-435.12 1103,-435.12 1097,-429.12 1097,-423.12 1097,-423.12 1097,-128.88 1097,-128.88 1097,-122.88 1103,-116.88 1109,-116.88"/>
<text xml:space="preserve" text-anchor="middle" x="1224" y="-415.93" font-family="NanumGothic Bold" font-size="16.00">Legend</text>
</g>
<!-- RNG_FNV -->
<g id="node1" class="node">
<title>RNG_FNV</title>
<path fill="#eef7ff" stroke="black" d="M743.88,-399.12C743.88,-399.12 592.12,-399.12 592.12,-399.12 586.12,-399.12 580.12,-393.12 580.12,-387.12 580.12,-387.12 580.12,-374.62 580.12,-374.62 580.12,-368.62 586.12,-362.62 592.12,-362.62 592.12,-362.62 743.88,-362.62 743.88,-362.62 749.88,-362.62 755.88,-368.62 755.88,-374.62 755.88,-374.62 755.88,-387.12 755.88,-387.12 755.88,-393.12 749.88,-399.12 743.88,-399.12"/>
<text xml:space="preserve" text-anchor="middle" x="668" y="-384.68" font-family="NanumGothic" font-size="11.00">Hash &lt;= FNV&#45;1a (RNG or Data)</text>
<text xml:space="preserve" text-anchor="middle" x="668" y="-370.43" font-family="NanumGothic" font-size="11.00">Hash Generator</text>
</g>
<!-- XOR_Scrambler_IN -->
<g id="node4" class="node">
<title>XOR_Scrambler_IN</title>
<path fill="#f7f7ff" stroke="black" d="M646,-269.75C646,-269.75 558,-269.75 558,-269.75 552,-269.75 546,-263.75 546,-257.75 546,-257.75 546,-241.5 546,-241.5 546,-235.5 552,-229.5 558,-229.5 558,-229.5 646,-229.5 646,-229.5 652,-229.5 658,-235.5 658,-241.5 658,-241.5 658,-257.75 658,-257.75 658,-263.75 652,-269.75 646,-269.75"/>
<text xml:space="preserve" text-anchor="middle" x="602" y="-255.3" font-family="NanumGothic" font-size="11.00">XOR Scrambler (IN)</text>
<text xml:space="preserve" text-anchor="middle" x="602" y="-241.05" font-family="NanumGothic" font-size="11.00">(Data ⊕ Hash)</text>
</g>
<!-- RNG_FNV&#45;&gt;XOR_Scrambler_IN -->
<g id="edge10" class="edge">
<title>RNG_FNV&#45;&gt;XOR_Scrambler_IN</title>
<path fill="none" stroke="#2b88d8" stroke-width="1.2" stroke-dasharray="1,5" d="M621.42,-362.34C607.71,-354.74 594.3,-344.34 586.5,-330.5 577.69,-314.86 581.44,-295.07 587.46,-279.1"/>
<polygon fill="#2b88d8" stroke="#2b88d8" stroke-width="1.2" points="589.98,-280.34 590.48,-271.87 584.81,-278.17 589.98,-280.34"/>
<text xml:space="preserve" text-anchor="middle" x="645.75" y="-317.2" font-family="Times New Roman,serif" font-size="14.00"> control: hash stream </text>
</g>
<!-- XOR_Scrambler_OUTRAM -->
<g id="node7" class="node">
<title>XOR_Scrambler_OUTRAM</title>
<path fill="#f7f7ff" stroke="black" d="M276.25,-163C276.25,-163 177.75,-163 177.75,-163 171.75,-163 165.75,-157 165.75,-151 165.75,-151 165.75,-134.75 165.75,-134.75 165.75,-128.75 171.75,-122.75 177.75,-122.75 177.75,-122.75 276.25,-122.75 276.25,-122.75 282.25,-122.75 288.25,-128.75 288.25,-134.75 288.25,-134.75 288.25,-151 288.25,-151 288.25,-157 282.25,-163 276.25,-163"/>
<text xml:space="preserve" text-anchor="middle" x="227" y="-148.55" font-family="NanumGothic" font-size="11.00">XOR Scrambler (OUT)</text>
<text xml:space="preserve" text-anchor="middle" x="227" y="-134.3" font-family="NanumGothic" font-size="11.00">(Data ⊕ Hash)</text>
</g>
<!-- RNG_FNV&#45;&gt;XOR_Scrambler_OUTRAM -->
<g id="edge13" class="edge">
<title>RNG_FNV&#45;&gt;XOR_Scrambler_OUTRAM</title>
<path fill="none" stroke="#2b88d8" stroke-width="1.2" stroke-dasharray="1,5" d="M579.65,-373.67C478.38,-364.81 320.72,-345.07 277,-306 238.95,-272.01 229.5,-209.79 227.37,-173.11"/>
<polygon fill="#2b88d8" stroke="#2b88d8" stroke-width="1.2" points="230.17,-173.17 227.02,-165.3 224.58,-173.41 230.17,-173.17"/>
</g>
<!-- XOR_DeScrambler_IN -->
<g id="node8" class="node">
<title>XOR_DeScrambler_IN</title>
<path fill="#f7f7ff" stroke="black" d="M1042.5,-269.75C1042.5,-269.75 933.5,-269.75 933.5,-269.75 927.5,-269.75 921.5,-263.75 921.5,-257.75 921.5,-257.75 921.5,-241.5 921.5,-241.5 921.5,-235.5 927.5,-229.5 933.5,-229.5 933.5,-229.5 1042.5,-229.5 1042.5,-229.5 1048.5,-229.5 1054.5,-235.5 1054.5,-241.5 1054.5,-241.5 1054.5,-257.75 1054.5,-257.75 1054.5,-263.75 1048.5,-269.75 1042.5,-269.75"/>
<text xml:space="preserve" text-anchor="middle" x="988" y="-255.3" font-family="NanumGothic" font-size="11.00">XOR (de)Scrambler (IN)</text>
<text xml:space="preserve" text-anchor="middle" x="988" y="-241.05" font-family="NanumGothic" font-size="11.00">(Data ⊕ Hash)</text>
</g>
<!-- RNG_FNV&#45;&gt;XOR_DeScrambler_IN -->
<g id="edge12" class="edge">
<title>RNG_FNV&#45;&gt;XOR_DeScrambler_IN</title>
<path fill="none" stroke="#2b88d8" stroke-width="1.2" stroke-dasharray="1,5" d="M711.82,-362.17C768.6,-339.24 867.72,-299.21 930.49,-273.85"/>
<polygon fill="#2b88d8" stroke="#2b88d8" stroke-width="1.2" points="931.43,-276.49 937.8,-270.9 929.33,-271.3 931.43,-276.49"/>
</g>
<!-- XOR_Scrambler_OUT -->
<g id="node11" class="node">
<title>XOR_Scrambler_OUT</title>
<path fill="#f7f7ff" stroke="black" d="M1025.25,-56.25C1025.25,-56.25 926.75,-56.25 926.75,-56.25 920.75,-56.25 914.75,-50.25 914.75,-44.25 914.75,-44.25 914.75,-28 914.75,-28 914.75,-22 920.75,-16 926.75,-16 926.75,-16 1025.25,-16 1025.25,-16 1031.25,-16 1037.25,-22 1037.25,-28 1037.25,-28 1037.25,-44.25 1037.25,-44.25 1037.25,-50.25 1031.25,-56.25 1025.25,-56.25"/>
<text xml:space="preserve" text-anchor="middle" x="976" y="-41.8" font-family="NanumGothic" font-size="11.00">XOR Scrambler (OUT)</text>
<text xml:space="preserve" text-anchor="middle" x="976" y="-27.55" font-family="NanumGothic" font-size="11.00">(Data ⊕ Hash)</text>
</g>
<!-- RNG_FNV&#45;&gt;XOR_Scrambler_OUT -->
<g id="edge11" class="edge">
<title>RNG_FNV&#45;&gt;XOR_Scrambler_OUT</title>
<path fill="none" stroke="#2b88d8" stroke-width="1.2" stroke-dasharray="1,5" d="M684.46,-362.24C693.07,-352.9 703.73,-341.19 713,-330.5 794.45,-236.59 805.34,-204.83 891,-114.75 908.2,-96.67 928.84,-77.75 945.48,-63.13"/>
<polygon fill="#2b88d8" stroke="#2b88d8" stroke-width="1.2" points="947.26,-65.29 951.45,-57.92 943.58,-61.07 947.26,-65.29"/>
</g>
<!-- InputData -->
<g id="node2" class="node">
<title>InputData</title>
<path fill="#ffffff" stroke="black" d="M198.25,-398.88C198.25,-398.88 153.75,-398.88 153.75,-398.88 147.75,-398.88 141.75,-392.88 141.75,-386.88 141.75,-386.88 141.75,-374.88 141.75,-374.88 141.75,-368.88 147.75,-362.88 153.75,-362.88 153.75,-362.88 198.25,-362.88 198.25,-362.88 204.25,-362.88 210.25,-368.88 210.25,-374.88 210.25,-374.88 210.25,-386.88 210.25,-386.88 210.25,-392.88 204.25,-398.88 198.25,-398.88"/>
<text xml:space="preserve" text-anchor="middle" x="176" y="-377.55" font-family="NanumGothic" font-size="11.00">Input Data</text>
</g>
<!-- InputData&#45;&gt;XOR_Scrambler_IN -->
<g id="edge1" class="edge">
<title>InputData&#45;&gt;XOR_Scrambler_IN</title>
<path fill="none" stroke="black" stroke-width="1.2" stroke-dasharray="5,2" d="M210.64,-376.93C274.36,-370.55 413.48,-352.13 521,-306 538.7,-298.41 556.56,-286.72 571,-276.03"/>
<polygon fill="black" stroke="black" stroke-width="1.2" points="572.51,-278.4 577.19,-271.33 569.13,-273.94 572.51,-278.4"/>
<text xml:space="preserve" text-anchor="middle" x="509.5" y="-317.2" font-family="Times New Roman,serif" font-size="14.00"> data </text>
</g>
<!-- OutputData -->
<g id="node3" class="node">
<title>OutputData</title>
<path fill="#ffffff" stroke="black" d="M80,-398.88C80,-398.88 28,-398.88 28,-398.88 22,-398.88 16,-392.88 16,-386.88 16,-386.88 16,-374.88 16,-374.88 16,-368.88 22,-362.88 28,-362.88 28,-362.88 80,-362.88 80,-362.88 86,-362.88 92,-368.88 92,-374.88 92,-374.88 92,-386.88 92,-386.88 92,-392.88 86,-398.88 80,-398.88"/>
<text xml:space="preserve" text-anchor="middle" x="54" y="-377.55" font-family="NanumGothic" font-size="11.00">Output Data</text>
</g>
<!-- Scratchpad_IN -->
<g id="node5" class="node">
<title>Scratchpad_IN</title>
<path fill="#fff8e6" stroke="black" d="M553.25,-161.12C553.25,-161.12 382.75,-161.12 382.75,-161.12 376.75,-161.12 370.75,-155.12 370.75,-149.12 370.75,-149.12 370.75,-136.62 370.75,-136.62 370.75,-130.62 376.75,-124.62 382.75,-124.62 382.75,-124.62 553.25,-124.62 553.25,-124.62 559.25,-124.62 565.25,-130.62 565.25,-136.62 565.25,-136.62 565.25,-149.12 565.25,-149.12 565.25,-155.12 559.25,-161.12 553.25,-161.12"/>
<text xml:space="preserve" text-anchor="middle" x="468" y="-146.68" font-family="NanumGothic" font-size="11.00">Scratchpad RAM (IN)</text>
<text xml:space="preserve" text-anchor="middle" x="468" y="-132.43" font-family="NanumGothic" font-size="11.00">(Holds Scrambled Data &amp; Hash pair)</text>
</g>
<!-- XOR_Scrambler_IN&#45;&gt;Scratchpad_IN -->
<g id="edge2" class="edge">
<title>XOR_Scrambler_IN&#45;&gt;Scratchpad_IN</title>
<path fill="none" stroke="black" stroke-width="1.2" stroke-dasharray="5,2" d="M577.11,-229.17C554.81,-211.73 522.03,-186.11 498.23,-167.5"/>
<polygon fill="black" stroke="black" stroke-width="1.2" points="499.99,-165.32 491.96,-162.6 496.54,-169.74 499.99,-165.32"/>
</g>
<!-- PQC_Engine -->
<g id="node9" class="node">
<title>PQC_Engine</title>
<path fill="#f2fff0" stroke="black" d="M1043.25,-406.25C1043.25,-406.25 926.75,-406.25 926.75,-406.25 920.75,-406.25 914.75,-400.25 914.75,-394.25 914.75,-394.25 914.75,-367.5 914.75,-367.5 914.75,-361.5 920.75,-355.5 926.75,-355.5 926.75,-355.5 1043.25,-355.5 1043.25,-355.5 1049.25,-355.5 1055.25,-361.5 1055.25,-367.5 1055.25,-367.5 1055.25,-394.25 1055.25,-394.25 1055.25,-400.25 1049.25,-406.25 1043.25,-406.25"/>
<text xml:space="preserve" text-anchor="middle" x="985" y="-391.8" font-family="NanumGothic" font-size="11.00">PQC Engine</text>
<text xml:space="preserve" text-anchor="middle" x="985" y="-377.55" font-family="NanumGothic" font-size="11.00">(De)Scramble(InputData)</text>
<text xml:space="preserve" text-anchor="middle" x="985" y="-363.3" font-family="NanumGothic" font-size="11.00">Sync Logic</text>
</g>
<!-- Scratchpad_IN&#45;&gt;PQC_Engine -->
<g id="edge3" class="edge">
<title>Scratchpad_IN&#45;&gt;PQC_Engine</title>
<path fill="none" stroke="black" stroke-width="1.2" stroke-dasharray="5,2" d="M515.44,-161.47C559.32,-178.05 626.15,-204.08 683,-229.5 770.53,-268.64 869.6,-319.21 929.67,-350.59"/>
<polygon fill="black" stroke="black" stroke-width="1.2" points="928.25,-353.01 936.63,-354.24 930.84,-348.04 928.25,-353.01"/>
</g>
<!-- Scratchpad_OUT -->
<g id="node6" class="node">
<title>Scratchpad_OUT</title>
<path fill="#fff8e6" stroke="black" d="M484.25,-267.88C484.25,-267.88 313.75,-267.88 313.75,-267.88 307.75,-267.88 301.75,-261.88 301.75,-255.88 301.75,-255.88 301.75,-243.38 301.75,-243.38 301.75,-237.38 307.75,-231.38 313.75,-231.38 313.75,-231.38 484.25,-231.38 484.25,-231.38 490.25,-231.38 496.25,-237.38 496.25,-243.38 496.25,-243.38 496.25,-255.88 496.25,-255.88 496.25,-261.88 490.25,-267.88 484.25,-267.88"/>
<text xml:space="preserve" text-anchor="middle" x="399" y="-253.43" font-family="NanumGothic" font-size="11.00">Scratchpad RAM (OUT)</text>
<text xml:space="preserve" text-anchor="middle" x="399" y="-239.18" font-family="NanumGothic" font-size="11.00">(Holds Scrambled Data &amp; Hash pair)</text>
</g>
<!-- Scratchpad_OUT&#45;&gt;XOR_Scrambler_OUTRAM -->
<g id="edge8" class="edge">
<title>Scratchpad_OUT&#45;&gt;XOR_Scrambler_OUTRAM</title>
<path fill="none" stroke="black" stroke-width="1.2" stroke-dasharray="5,2" d="M370.21,-231.09C342.03,-213.93 298.85,-187.63 267.27,-168.4"/>
<polygon fill="black" stroke="black" stroke-width="1.2" points="268.94,-166.14 260.65,-164.37 266.03,-170.92 268.94,-166.14"/>
</g>
<!-- XOR_Scrambler_OUTRAM&#45;&gt;OutputData -->
<g id="edge9" class="edge">
<title>XOR_Scrambler_OUTRAM&#45;&gt;OutputData</title>
<path fill="none" stroke="black" stroke-width="1.2" stroke-dasharray="5,2" d="M209.03,-163.23C202.25,-170.8 194.58,-179.64 188,-188 142.68,-245.59 94.71,-317.27 70.31,-354.6"/>
<polygon fill="black" stroke="black" stroke-width="1.2" points="68.21,-352.71 66.19,-360.94 72.9,-355.77 68.21,-352.71"/>
</g>
<!-- PQC_Primitives -->
<g id="node10" class="node">
<title>PQC_Primitives</title>
<path fill="#f2fff0" stroke="black" d="M1038.25,-161.12C1038.25,-161.12 927.75,-161.12 927.75,-161.12 921.75,-161.12 915.75,-155.12 915.75,-149.12 915.75,-149.12 915.75,-136.62 915.75,-136.62 915.75,-130.62 921.75,-124.62 927.75,-124.62 927.75,-124.62 1038.25,-124.62 1038.25,-124.62 1044.25,-124.62 1050.25,-130.62 1050.25,-136.62 1050.25,-136.62 1050.25,-149.12 1050.25,-149.12 1050.25,-155.12 1044.25,-161.12 1038.25,-161.12"/>
<text xml:space="preserve" text-anchor="middle" x="983" y="-146.68" font-family="NanumGothic" font-size="11.00">PQC Primitives</text>
<text xml:space="preserve" text-anchor="middle" x="983" y="-132.43" font-family="NanumGothic" font-size="11.00">(For NTT, Poly Ops, etc.)</text>
</g>
<!-- XOR_DeScrambler_IN&#45;&gt;PQC_Primitives -->
<g id="edge5" class="edge">
<title>XOR_DeScrambler_IN&#45;&gt;PQC_Primitives</title>
<path fill="none" stroke="black" stroke-width="1.2" stroke-dasharray="5,2" d="M987.08,-229.41C986.31,-213.14 985.18,-189.62 984.31,-171.36"/>
<polygon fill="black" stroke="black" stroke-width="1.2" points="987.11,-171.24 983.93,-163.38 981.52,-171.51 987.11,-171.24"/>
<text xml:space="preserve" text-anchor="middle" x="1000.8" y="-191.2" font-family="Times New Roman,serif" font-size="14.00"> data </text>
</g>
<!-- PQC_Engine&#45;&gt;XOR_DeScrambler_IN -->
<g id="edge4" class="edge">
<title>PQC_Engine&#45;&gt;XOR_DeScrambler_IN</title>
<path fill="none" stroke="black" stroke-width="1.2" stroke-dasharray="5,2" d="M985.57,-355.26C986.07,-333.79 986.79,-302.61 987.32,-279.87"/>
<polygon fill="black" stroke="black" stroke-width="1.2" points="990.12,-279.97 987.51,-271.9 984.52,-279.84 990.12,-279.97"/>
<text xml:space="preserve" text-anchor="middle" x="1021.38" y="-317.2" font-family="Times New Roman,serif" font-size="14.00"> descramble </text>
</g>
<!-- PQC_Primitives&#45;&gt;XOR_Scrambler_OUT -->
<g id="edge6" class="edge">
<title>PQC_Primitives&#45;&gt;XOR_Scrambler_OUT</title>
<path fill="none" stroke="black" stroke-width="1.2" stroke-dasharray="5,2" d="M981.84,-124.58C980.78,-108.72 979.19,-84.91 977.94,-66.14"/>
<polygon fill="black" stroke="black" stroke-width="1.2" points="980.75,-66.19 977.42,-58.4 975.16,-66.57 980.75,-66.19"/>
<text xml:space="preserve" text-anchor="middle" x="998.67" y="-84.45" font-family="Times New Roman,serif" font-size="14.00"> result </text>
</g>
<!-- XOR_Scrambler_OUT&#45;&gt;Scratchpad_OUT -->
<g id="edge7" class="edge">
<title>XOR_Scrambler_OUT&#45;&gt;Scratchpad_OUT</title>
<path fill="none" stroke="black" stroke-width="1.2" stroke-dasharray="5,2" d="M914.38,-39.22C858,-42.96 773.24,-53.23 705,-81.25 646.99,-105.07 644.43,-131.86 590,-163 545.91,-188.23 493.02,-211.44 454.08,-227.31"/>
<polygon fill="black" stroke="black" stroke-width="1.2" points="453.05,-224.71 446.68,-230.3 455.15,-229.9 453.05,-224.71"/>
</g>
<!-- LegendTitle -->
<g id="node12" class="node">
<title>LegendTitle</title>
<path fill="#ffffff" stroke="none" d="M1153.12,-398.88C1153.12,-398.88 1116.88,-398.88 1116.88,-398.88 1110.88,-398.88 1104.88,-392.88 1104.88,-386.88 1104.88,-386.88 1104.88,-374.88 1104.88,-374.88 1104.88,-368.88 1110.88,-362.88 1116.88,-362.88 1116.88,-362.88 1153.12,-362.88 1153.12,-362.88 1159.12,-362.88 1165.12,-368.88 1165.12,-374.88 1165.12,-374.88 1165.12,-386.88 1165.12,-386.88 1165.12,-392.88 1159.12,-398.88 1153.12,-398.88"/>
<text xml:space="preserve" text-anchor="middle" x="1135" y="-377.35" font-family="NanumGothic Bold" font-size="12.00">Legend</text>
</g>
<!-- L1 -->
<g id="node13" class="node">
<title>L1</title>
<polygon fill="#ffffff" stroke="black" points="1336.88,-398.88 1215.12,-398.88 1215.12,-362.88 1342.88,-362.88 1342.88,-392.88 1336.88,-398.88"/>
<polyline fill="none" stroke="black" points="1336.88,-398.88 1336.88,-392.88"/>
<polyline fill="none" stroke="black" points="1342.88,-392.88 1336.88,-392.88"/>
<text xml:space="preserve" text-anchor="middle" x="1279" y="-377.75" font-family="NanumGothic" font-size="10.00">Data path = black dashed</text>
</g>
<!-- L2 -->
<g id="node14" class="node">
<title>L2</title>
<polygon fill="#eef7ff" stroke="black" points="1327.12,-267.62 1224.88,-267.62 1224.88,-231.62 1333.12,-231.62 1333.12,-261.62 1327.12,-267.62"/>
<polyline fill="none" stroke="black" points="1327.12,-267.62 1327.12,-261.62"/>
<polyline fill="none" stroke="black" points="1333.12,-261.62 1327.12,-261.62"/>
<text xml:space="preserve" text-anchor="middle" x="1279" y="-246.5" font-family="NanumGothic" font-size="10.00">Control = blue dotted</text>
</g>
<!-- L1&#45;&gt;L2 -->
<!-- L3 -->
<g id="node15" class="node">
<title>L3</title>
<polygon fill="#ffeeee" stroke="black" points="1326.75,-160.88 1225.25,-160.88 1225.25,-124.88 1332.75,-124.88 1332.75,-154.88 1326.75,-160.88"/>
<polyline fill="none" stroke="black" points="1326.75,-160.88 1326.75,-154.88"/>
<polyline fill="none" stroke="black" points="1332.75,-154.88 1326.75,-154.88"/>
<text xml:space="preserve" text-anchor="middle" x="1279" y="-139.75" font-family="NanumGothic" font-size="10.00">Exception = red solid</text>
</g>
<!-- L2&#45;&gt;L3 -->
</g>
</svg>
