<?xml version="1.0" encoding="UTF-8" standalone="no"?>
<!DOCTYPE svg PUBLIC "-//W3C//DTD SVG 1.1//EN"
 "http://www.w3.org/Graphics/SVG/1.1/DTD/svg11.dtd">
<!-- Generated by graphviz version 13.1.2 (20250808.2320)
 -->
<!-- Title: ComplexMatrix_Flow Pages: 1 -->
<svg width="568pt" height="918pt"
 viewBox="0.00 0.00 568.00 918.00" xmlns="http://www.w3.org/2000/svg" xmlns:xlink="http://www.w3.org/1999/xlink">
<g id="graph0" class="graph" transform="scale(1 1) rotate(0) translate(4 914)">
<title>ComplexMatrix_Flow</title>
<polygon fill="white" stroke="none" points="-4,4 -4,-914 563.75,-914 563.75,4 -4,4"/>
<!-- LEG -->
<g id="node1" class="node">
<title>LEG</title>
<polygon fill="white" stroke="black" points="553.75,-910 150.75,-910 150.75,-842 559.75,-842 559.75,-904 553.75,-910"/>
<polyline fill="none" stroke="black" points="553.75,-910 553.75,-904"/>
<polyline fill="none" stroke="black" points="559.75,-904 553.75,-904"/>
<text xml:space="preserve" text-anchor="middle" x="355.25" y="-896.5" font-family="Helvetica,sans-Serif" font-size="10.00">Angle Estimation Branches:</text>
<text xml:space="preserve" text-anchor="middle" x="355.25" y="-884.5" font-family="Helvetica,sans-Serif" font-size="10.00">• FFT Beamforming (fast, lower resolution)</text>
<text xml:space="preserve" text-anchor="middle" x="355.25" y="-872.5" font-family="Helvetica,sans-Serif" font-size="10.00">• Super&#45;Resolution (MUSIC/ESPRIT) via Covariance + EVD (higher precision)</text>
<text xml:space="preserve" text-anchor="middle" x="355.25" y="-860.5" font-family="Helvetica,sans-Serif" font-size="10.00">Common pre&#45;processing: Range/Doppler FFT</text>
<text xml:space="preserve" text-anchor="middle" x="355.25" y="-848.5" font-family="Helvetica,sans-Serif" font-size="10.00">All kernels map to GEMV/GEMM; small dense EVD/SVD favored by X&#45;AME complex ops</text>
</g>
<!-- RAW -->
<g id="node2" class="node">
<title>RAW</title>
<path fill="white" stroke="black" d="M422.88,-775C422.88,-775 287.62,-775 287.62,-775 281.62,-775 275.62,-769 275.62,-763 275.62,-763 275.62,-738.5 275.62,-738.5 275.62,-732.5 281.62,-726.5 287.62,-726.5 287.62,-726.5 422.88,-726.5 422.88,-726.5 428.88,-726.5 434.88,-732.5 434.88,-738.5 434.88,-738.5 434.88,-763 434.88,-763 434.88,-769 428.88,-775 422.88,-775"/>
<text xml:space="preserve" text-anchor="middle" x="355.25" y="-760.55" font-family="Helvetica,sans-Serif" font-size="11.00">ADC / Chirp Data</text>
<text xml:space="preserve" text-anchor="middle" x="355.25" y="-747.05" font-family="Helvetica,sans-Serif" font-size="11.00">(4D Radar or MIMO Streams)</text>
<text xml:space="preserve" text-anchor="middle" x="355.25" y="-733.55" font-family="Helvetica,sans-Serif" font-size="11.00">Complex FP16</text>
</g>
<!-- LEG&#45;&gt;RAW -->
<!-- RDFF -->
<g id="node3" class="node">
<title>RDFF</title>
<path fill="white" stroke="black" d="M302.62,-648.5C302.62,-648.5 213.88,-648.5 213.88,-648.5 207.88,-648.5 201.88,-642.5 201.88,-636.5 201.88,-636.5 201.88,-612 201.88,-612 201.88,-606 207.88,-600 213.88,-600 213.88,-600 302.62,-600 302.62,-600 308.62,-600 314.62,-606 314.62,-612 314.62,-612 314.62,-636.5 314.62,-636.5 314.62,-642.5 308.62,-648.5 302.62,-648.5"/>
<text xml:space="preserve" text-anchor="middle" x="258.25" y="-634.05" font-family="Helvetica,sans-Serif" font-size="11.00">Range/Doppler FFT</text>
<text xml:space="preserve" text-anchor="middle" x="258.25" y="-620.55" font-family="Helvetica,sans-Serif" font-size="11.00">Tile&#45;based MMACC</text>
<text xml:space="preserve" text-anchor="middle" x="258.25" y="-607.05" font-family="Helvetica,sans-Serif" font-size="11.00">(FP16→FP32)</text>
</g>
<!-- RAW&#45;&gt;RDFF -->
<g id="edge2" class="edge">
<title>RAW&#45;&gt;RDFF</title>
<path fill="none" stroke="black" d="M336.78,-726.04C321.74,-706.74 300.36,-679.3 283.7,-657.92"/>
<polygon fill="black" stroke="black" points="286.49,-655.8 277.58,-650.07 280.97,-660.11 286.49,-655.8"/>
</g>
<!-- CHAN -->
<g id="node11" class="node">
<title>CHAN</title>
<path fill="white" stroke="black" d="M496.38,-642.25C496.38,-642.25 394.12,-642.25 394.12,-642.25 388.12,-642.25 382.12,-636.25 382.12,-630.25 382.12,-630.25 382.12,-618.25 382.12,-618.25 382.12,-612.25 388.12,-606.25 394.12,-606.25 394.12,-606.25 496.38,-606.25 496.38,-606.25 502.38,-606.25 508.38,-612.25 508.38,-618.25 508.38,-618.25 508.38,-630.25 508.38,-630.25 508.38,-636.25 502.38,-642.25 496.38,-642.25"/>
<text xml:space="preserve" text-anchor="middle" x="445.25" y="-627.3" font-family="Helvetica,sans-Serif" font-size="11.00">5G/6G Channel H</text>
<text xml:space="preserve" text-anchor="middle" x="445.25" y="-613.8" font-family="Helvetica,sans-Serif" font-size="11.00">(Nr×Nt up to 256×256)</text>
</g>
<!-- RAW&#45;&gt;CHAN -->
<g id="edge10" class="edge">
<title>RAW&#45;&gt;CHAN</title>
<path fill="none" stroke="black" stroke-dasharray="5,2" d="M372.39,-726.04C387.76,-704.78 410.28,-673.62 426.21,-651.59"/>
<polygon fill="black" stroke="black" points="428.9,-653.85 431.92,-643.69 423.22,-649.75 428.9,-653.85"/>
<text xml:space="preserve" text-anchor="middle" x="427.32" y="-684" font-family="Helvetica,sans-Serif" font-size="10.00">comm path</text>
</g>
<!-- ANGFFT -->
<g id="node4" class="node">
<title>ANGFFT</title>
<path fill="white" stroke="black" d="M122.5,-533C122.5,-533 12,-533 12,-533 6,-533 0,-527 0,-521 0,-521 0,-496.5 0,-496.5 0,-490.5 6,-484.5 12,-484.5 12,-484.5 122.5,-484.5 122.5,-484.5 128.5,-484.5 134.5,-490.5 134.5,-496.5 134.5,-496.5 134.5,-521 134.5,-521 134.5,-527 128.5,-533 122.5,-533"/>
<text xml:space="preserve" text-anchor="middle" x="67.25" y="-518.55" font-family="Helvetica,sans-Serif" font-size="11.00">Angle FFT Beamforming</text>
<text xml:space="preserve" text-anchor="middle" x="67.25" y="-505.05" font-family="Helvetica,sans-Serif" font-size="11.00">(FFT along array dim)</text>
<text xml:space="preserve" text-anchor="middle" x="67.25" y="-491.55" font-family="Helvetica,sans-Serif" font-size="11.00">GEMV&#45;like pipeline</text>
</g>
<!-- RDFF&#45;&gt;ANGFFT -->
<g id="edge3" class="edge">
<title>RDFF&#45;&gt;ANGFFT</title>
<path fill="none" stroke="black" d="M218.67,-599.73C189.07,-582.14 148.39,-557.96 116.64,-539.1"/>
<polygon fill="black" stroke="black" points="118.79,-536.31 108.4,-534.21 115.21,-542.32 118.79,-536.31"/>
</g>
<!-- CUBE -->
<g id="node6" class="node">
<title>CUBE</title>
<path fill="white" stroke="black" d="M311.62,-533C311.62,-533 204.88,-533 204.88,-533 198.88,-533 192.88,-527 192.88,-521 192.88,-521 192.88,-496.5 192.88,-496.5 192.88,-490.5 198.88,-484.5 204.88,-484.5 204.88,-484.5 311.62,-484.5 311.62,-484.5 317.62,-484.5 323.62,-490.5 323.62,-496.5 323.62,-496.5 323.62,-521 323.62,-521 323.62,-527 317.62,-533 311.62,-533"/>
<text xml:space="preserve" text-anchor="middle" x="258.25" y="-518.55" font-family="Helvetica,sans-Serif" font-size="11.00">Array Snapshot X</text>
<text xml:space="preserve" text-anchor="middle" x="258.25" y="-505.05" font-family="Helvetica,sans-Serif" font-size="11.00">(Per&#45;range/Doppler bin)</text>
<text xml:space="preserve" text-anchor="middle" x="258.25" y="-491.55" font-family="Helvetica,sans-Serif" font-size="11.00">Complex vectors</text>
</g>
<!-- RDFF&#45;&gt;CUBE -->
<g id="edge5" class="edge">
<title>RDFF&#45;&gt;CUBE</title>
<path fill="none" stroke="black" d="M258.25,-599.73C258.25,-583.83 258.25,-562.55 258.25,-544.68"/>
<polygon fill="black" stroke="black" points="261.75,-544.75 258.25,-534.75 254.75,-544.75 261.75,-544.75"/>
</g>
<!-- RADAR1 -->
<g id="node5" class="node">
<title>RADAR1</title>
<path fill="#e8f3ff" stroke="black" d="M118.75,-417.5C118.75,-417.5 15.75,-417.5 15.75,-417.5 9.75,-417.5 3.75,-411.5 3.75,-405.5 3.75,-405.5 3.75,-381 3.75,-381 3.75,-375 9.75,-369 15.75,-369 15.75,-369 118.75,-369 118.75,-369 124.75,-369 130.75,-375 130.75,-381 130.75,-381 130.75,-405.5 130.75,-405.5 130.75,-411.5 124.75,-417.5 118.75,-417.5"/>
<text xml:space="preserve" text-anchor="middle" x="67.25" y="-403.05" font-family="Helvetica,sans-Serif" font-size="11.00">Angle/Doppler Output</text>
<text xml:space="preserve" text-anchor="middle" x="67.25" y="-389.55" font-family="Helvetica,sans-Serif" font-size="11.00">(Real&#45;time, ≤ ms)</text>
<text xml:space="preserve" text-anchor="middle" x="67.25" y="-376.05" font-family="Helvetica,sans-Serif" font-size="11.00">Resolution: FFT&#45;limited</text>
</g>
<!-- ANGFFT&#45;&gt;RADAR1 -->
<g id="edge4" class="edge">
<title>ANGFFT&#45;&gt;RADAR1</title>
<path fill="none" stroke="black" d="M67.25,-484.23C67.25,-468.33 67.25,-447.05 67.25,-429.18"/>
<polygon fill="black" stroke="black" points="70.75,-429.25 67.25,-419.25 63.75,-429.25 70.75,-429.25"/>
</g>
<!-- COV -->
<g id="node7" class="node">
<title>COV</title>
<path fill="white" stroke="black" d="M305.25,-417.5C305.25,-417.5 211.25,-417.5 211.25,-417.5 205.25,-417.5 199.25,-411.5 199.25,-405.5 199.25,-405.5 199.25,-381 199.25,-381 199.25,-375 205.25,-369 211.25,-369 211.25,-369 305.25,-369 305.25,-369 311.25,-369 317.25,-375 317.25,-381 317.25,-381 317.25,-405.5 317.25,-405.5 317.25,-411.5 311.25,-417.5 305.25,-417.5"/>
<text xml:space="preserve" text-anchor="middle" x="258.25" y="-403.05" font-family="Helvetica,sans-Serif" font-size="11.00">Covariance R = X·Xᴴ</text>
<text xml:space="preserve" text-anchor="middle" x="258.25" y="-389.55" font-family="Helvetica,sans-Serif" font-size="11.00">(16×16 or 32×32)</text>
<text xml:space="preserve" text-anchor="middle" x="258.25" y="-376.05" font-family="Helvetica,sans-Serif" font-size="11.00">Complex GEMM</text>
</g>
<!-- CUBE&#45;&gt;COV -->
<g id="edge6" class="edge">
<title>CUBE&#45;&gt;COV</title>
<path fill="none" stroke="black" d="M258.25,-484.23C258.25,-468.33 258.25,-447.05 258.25,-429.18"/>
<polygon fill="black" stroke="black" points="261.75,-429.25 258.25,-419.25 254.75,-429.25 261.75,-429.25"/>
</g>
<!-- EVD -->
<g id="node8" class="node">
<title>EVD</title>
<path fill="white" stroke="black" d="M304.88,-302C304.88,-302 211.62,-302 211.62,-302 205.62,-302 199.62,-296 199.62,-290 199.62,-290 199.62,-265.5 199.62,-265.5 199.62,-259.5 205.62,-253.5 211.62,-253.5 211.62,-253.5 304.88,-253.5 304.88,-253.5 310.88,-253.5 316.88,-259.5 316.88,-265.5 316.88,-265.5 316.88,-290 316.88,-290 316.88,-296 310.88,-302 304.88,-302"/>
<text xml:space="preserve" text-anchor="middle" x="258.25" y="-287.55" font-family="Helvetica,sans-Serif" font-size="11.00">EVD / SVD</text>
<text xml:space="preserve" text-anchor="middle" x="258.25" y="-274.05" font-family="Helvetica,sans-Serif" font-size="11.00">Subspace Split</text>
<text xml:space="preserve" text-anchor="middle" x="258.25" y="-260.55" font-family="Helvetica,sans-Serif" font-size="11.00">Small Dense Kernels</text>
</g>
<!-- COV&#45;&gt;EVD -->
<g id="edge7" class="edge">
<title>COV&#45;&gt;EVD</title>
<path fill="none" stroke="black" d="M258.25,-368.73C258.25,-352.83 258.25,-331.55 258.25,-313.68"/>
<polygon fill="black" stroke="black" points="261.75,-313.75 258.25,-303.75 254.75,-313.75 261.75,-313.75"/>
</g>
<!-- SPEC -->
<g id="node9" class="node">
<title>SPEC</title>
<path fill="white" stroke="black" d="M298.88,-186.5C298.88,-186.5 217.62,-186.5 217.62,-186.5 211.62,-186.5 205.62,-180.5 205.62,-174.5 205.62,-174.5 205.62,-150 205.62,-150 205.62,-144 211.62,-138 217.62,-138 217.62,-138 298.88,-138 298.88,-138 304.88,-138 310.88,-144 310.88,-150 310.88,-150 310.88,-174.5 310.88,-174.5 310.88,-180.5 304.88,-186.5 298.88,-186.5"/>
<text xml:space="preserve" text-anchor="middle" x="258.25" y="-172.05" font-family="Helvetica,sans-Serif" font-size="11.00">Spatial Spectrum</text>
<text xml:space="preserve" text-anchor="middle" x="258.25" y="-158.55" font-family="Helvetica,sans-Serif" font-size="11.00">MUSIC / ESPRIT</text>
<text xml:space="preserve" text-anchor="middle" x="258.25" y="-145.05" font-family="Helvetica,sans-Serif" font-size="11.00">GEMV / Projection</text>
</g>
<!-- EVD&#45;&gt;SPEC -->
<g id="edge8" class="edge">
<title>EVD&#45;&gt;SPEC</title>
<path fill="none" stroke="black" d="M258.25,-253.23C258.25,-237.33 258.25,-216.05 258.25,-198.18"/>
<polygon fill="black" stroke="black" points="261.75,-198.25 258.25,-188.25 254.75,-198.25 261.75,-198.25"/>
</g>
<!-- RADAR2 -->
<g id="node10" class="node">
<title>RADAR2</title>
<path fill="#e8f3ff" stroke="black" d="M203.25,-59.75C203.25,-59.75 103.25,-59.75 103.25,-59.75 97.25,-59.75 91.25,-53.75 91.25,-47.75 91.25,-47.75 91.25,-23.25 91.25,-23.25 91.25,-17.25 97.25,-11.25 103.25,-11.25 103.25,-11.25 203.25,-11.25 203.25,-11.25 209.25,-11.25 215.25,-17.25 215.25,-23.25 215.25,-23.25 215.25,-47.75 215.25,-47.75 215.25,-53.75 209.25,-59.75 203.25,-59.75"/>
<text xml:space="preserve" text-anchor="middle" x="153.25" y="-45.3" font-family="Helvetica,sans-Serif" font-size="11.00">Angle/Doppler Output</text>
<text xml:space="preserve" text-anchor="middle" x="153.25" y="-31.8" font-family="Helvetica,sans-Serif" font-size="11.00">(High precision)</text>
<text xml:space="preserve" text-anchor="middle" x="153.25" y="-18.3" font-family="Helvetica,sans-Serif" font-size="11.00">Resolution: Super&#45;res.</text>
</g>
<!-- SPEC&#45;&gt;RADAR2 -->
<g id="edge9" class="edge">
<title>SPEC&#45;&gt;RADAR2</title>
<path fill="none" stroke="black" d="M238.5,-137.79C222,-118.18 198.32,-90.04 180.1,-68.4"/>
<polygon fill="black" stroke="black" points="183,-66.41 173.89,-61.02 177.65,-70.92 183,-66.41"/>
</g>
<!-- note1 -->
<g id="node13" class="node">
<title>note1</title>
<polygon fill="white" stroke="black" points="447,-71 273.5,-71 273.5,0 453,0 453,-65 447,-71"/>
<polyline fill="none" stroke="black" points="447,-71 447,-65"/>
<polyline fill="none" stroke="black" points="453,-65 447,-65"/>
<text xml:space="preserve" text-anchor="middle" x="363.25" y="-58.45" font-family="Helvetica,sans-Serif" font-size="9.00">Kernel map:</text>
<text xml:space="preserve" text-anchor="middle" x="363.25" y="-47.95" font-family="Helvetica,sans-Serif" font-size="9.00">• FFT: small GEMV (2×2 / 4×4 butterflies)</text>
<text xml:space="preserve" text-anchor="middle" x="363.25" y="-37.45" font-family="Helvetica,sans-Serif" font-size="9.00">• COV: GEMM (X·Xᴴ)</text>
<text xml:space="preserve" text-anchor="middle" x="363.25" y="-26.95" font-family="Helvetica,sans-Serif" font-size="9.00">• EVD/SVD: small dense ops</text>
<text xml:space="preserve" text-anchor="middle" x="363.25" y="-16.45" font-family="Helvetica,sans-Serif" font-size="9.00">• MUSIC proj.: GEMV a^H E_n E_n^H a</text>
<text xml:space="preserve" text-anchor="middle" x="363.25" y="-5.95" font-family="Helvetica,sans-Serif" font-size="9.00">Data types: IFmt=FP16, OFmt=FP32</text>
</g>
<!-- SPEC&#45;&gt;note1 -->
<!-- PRECOD -->
<g id="node12" class="node">
<title>PRECOD</title>
<path fill="#f9f9cc" stroke="black" d="M515.12,-533C515.12,-533 393.38,-533 393.38,-533 387.38,-533 381.38,-527 381.38,-521 381.38,-521 381.38,-496.5 381.38,-496.5 381.38,-490.5 387.38,-484.5 393.38,-484.5 393.38,-484.5 515.12,-484.5 515.12,-484.5 521.12,-484.5 527.12,-490.5 527.12,-496.5 527.12,-496.5 527.12,-521 527.12,-521 527.12,-527 521.12,-533 515.12,-533"/>
<text xml:space="preserve" text-anchor="middle" x="454.25" y="-518.55" font-family="Helvetica,sans-Serif" font-size="11.00">Precoding / CE</text>
<text xml:space="preserve" text-anchor="middle" x="454.25" y="-505.05" font-family="Helvetica,sans-Serif" font-size="11.00">GEMM + SVD (MMSE/ZF)</text>
<text xml:space="preserve" text-anchor="middle" x="454.25" y="-491.55" font-family="Helvetica,sans-Serif" font-size="11.00">Tile/BLIS/Accel</text>
</g>
<!-- CHAN&#45;&gt;PRECOD -->
<g id="edge11" class="edge">
<title>CHAN&#45;&gt;PRECOD</title>
<path fill="none" stroke="black" d="M446.62,-606.01C447.9,-589.84 449.86,-565.16 451.47,-544.85"/>
<polygon fill="black" stroke="black" points="454.95,-545.24 452.25,-534.99 447.97,-544.68 454.95,-545.24"/>
</g>
</g>
</svg>
