<?xml version="1.0" encoding="UTF-8" standalone="no"?>
<!DOCTYPE svg PUBLIC "-//W3C//DTD SVG 1.1//EN"
 "http://www.w3.org/Graphics/SVG/1.1/DTD/svg11.dtd">
<!-- Generated by graphviz version 13.1.2 (20250808.2320)
 -->
<!-- Title: XAME_VNS Pages: 1 -->
<svg width="407pt" height="260pt"
 viewBox="0.00 0.00 407.00 260.00" xmlns="http://www.w3.org/2000/svg" xmlns:xlink="http://www.w3.org/1999/xlink">
<g id="graph0" class="graph" transform="scale(1 1) rotate(0) translate(4 256)">
<title>XAME_VNS</title>
<polygon fill="white" stroke="none" points="-4,4 -4,-256 403,-256 403,4 -4,4"/>
<!-- A -->
<g id="node1" class="node">
<title>A</title>
<path fill="none" stroke="black" d="M81.5,-252C81.5,-252 29.5,-252 29.5,-252 23.5,-252 17.5,-246 17.5,-240 17.5,-240 17.5,-228 17.5,-228 17.5,-222 23.5,-216 29.5,-216 29.5,-216 81.5,-216 81.5,-216 87.5,-216 93.5,-222 93.5,-228 93.5,-228 93.5,-240 93.5,-240 93.5,-246 87.5,-252 81.5,-252"/>
<text xml:space="preserve" text-anchor="middle" x="55.5" y="-230.3" font-family="Times New Roman,serif" font-size="11.00">Tile A (Input)</text>
</g>
<!-- MAC -->
<g id="node3" class="node">
<title>MAC</title>
<path fill="none" stroke="black" d="M274.88,-180C274.88,-180 132.12,-180 132.12,-180 126.12,-180 120.12,-174 120.12,-168 120.12,-168 120.12,-156 120.12,-156 120.12,-150 126.12,-144 132.12,-144 132.12,-144 274.88,-144 274.88,-144 280.88,-144 286.88,-150 286.88,-156 286.88,-156 286.88,-168 286.88,-168 286.88,-174 280.88,-180 274.88,-180"/>
<text xml:space="preserve" text-anchor="middle" x="203.5" y="-158.3" font-family="Times New Roman,serif" font-size="11.00">MMACC Core (K,M,bTR,bTOP)</text>
</g>
<!-- A&#45;&gt;MAC -->
<g id="edge1" class="edge">
<title>A&#45;&gt;MAC</title>
<path fill="none" stroke="black" d="M92.46,-215.52C111.87,-206.34 135.86,-194.99 156.57,-185.2"/>
<polygon fill="black" stroke="black" points="157.84,-188.47 165.38,-181.03 154.85,-182.14 157.84,-188.47"/>
</g>
<!-- B -->
<g id="node2" class="node">
<title>B</title>
<path fill="none" stroke="black" d="M229.88,-252C229.88,-252 177.12,-252 177.12,-252 171.12,-252 165.12,-246 165.12,-240 165.12,-240 165.12,-228 165.12,-228 165.12,-222 171.12,-216 177.12,-216 177.12,-216 229.88,-216 229.88,-216 235.88,-216 241.88,-222 241.88,-228 241.88,-228 241.88,-240 241.88,-240 241.88,-246 235.88,-252 229.88,-252"/>
<text xml:space="preserve" text-anchor="middle" x="203.5" y="-230.3" font-family="Times New Roman,serif" font-size="11.00">Tile B (Input)</text>
</g>
<!-- B&#45;&gt;MAC -->
<g id="edge2" class="edge">
<title>B&#45;&gt;MAC</title>
<path fill="none" stroke="black" d="M203.5,-215.7C203.5,-208.41 203.5,-199.73 203.5,-191.54"/>
<polygon fill="black" stroke="black" points="207,-191.62 203.5,-181.62 200,-191.62 207,-191.62"/>
</g>
<!-- SCALE -->
<g id="node5" class="node">
<title>SCALE</title>
<path fill="none" stroke="black" d="M169,-108C169,-108 12,-108 12,-108 6,-108 0,-102 0,-96 0,-96 0,-84 0,-84 0,-78 6,-72 12,-72 12,-72 169,-72 169,-72 175,-72 181,-78 181,-84 181,-84 181,-96 181,-96 181,-102 175,-108 169,-108"/>
<text xml:space="preserve" text-anchor="middle" x="90.5" y="-86.3" font-family="Times New Roman,serif" font-size="11.00">Finegrain SA/SW scale.peek/commit</text>
</g>
<!-- MAC&#45;&gt;SCALE -->
<g id="edge4" class="edge">
<title>MAC&#45;&gt;SCALE</title>
<path fill="none" stroke="black" d="M175.28,-143.52C161.01,-134.68 143.51,-123.84 128.12,-114.3"/>
<polygon fill="black" stroke="black" points="129.99,-111.35 119.65,-109.06 126.31,-117.3 129.99,-111.35"/>
</g>
<!-- PQC -->
<g id="node6" class="node">
<title>PQC</title>
<path fill="none" stroke="black" d="M368,-108C368,-108 265,-108 265,-108 259,-108 253,-102 253,-96 253,-96 253,-84 253,-84 253,-78 259,-72 265,-72 265,-72 368,-72 368,-72 374,-72 380,-78 380,-84 380,-84 380,-96 380,-96 380,-102 374,-108 368,-108"/>
<text xml:space="preserve" text-anchor="middle" x="316.5" y="-86.3" font-family="Times New Roman,serif" font-size="11.00">NTT/FFT Shared Kernel</text>
</g>
<!-- MAC&#45;&gt;PQC -->
<g id="edge6" class="edge">
<title>MAC&#45;&gt;PQC</title>
<path fill="none" stroke="black" stroke-dasharray="5,2" d="M231.72,-143.52C245.99,-134.68 263.49,-123.84 278.88,-114.3"/>
<polygon fill="black" stroke="black" points="280.69,-117.3 287.35,-109.06 277.01,-111.35 280.69,-117.3"/>
</g>
<!-- PLAN -->
<g id="node4" class="node">
<title>PLAN</title>
<path fill="none" stroke="black" d="M387,-252C387,-252 326,-252 326,-252 320,-252 314,-246 314,-240 314,-240 314,-228 314,-228 314,-222 320,-216 326,-216 326,-216 387,-216 387,-216 393,-216 399,-222 399,-228 399,-228 399,-240 399,-240 399,-246 393,-252 387,-252"/>
<text xml:space="preserve" text-anchor="middle" x="356.5" y="-230.3" font-family="Times New Roman,serif" font-size="11.00">VNS Plan CSR</text>
</g>
<!-- PLAN&#45;&gt;MAC -->
<g id="edge3" class="edge">
<title>PLAN&#45;&gt;MAC</title>
<path fill="none" stroke="black" d="M318.29,-215.52C298.13,-206.29 273.19,-194.89 251.72,-185.06"/>
<polygon fill="black" stroke="black" points="253.42,-181.99 242.87,-181.01 250.51,-188.35 253.42,-181.99"/>
</g>
<!-- OUT -->
<g id="node7" class="node">
<title>OUT</title>
<path fill="none" stroke="black" d="M105.5,-36C105.5,-36 75.5,-36 75.5,-36 69.5,-36 63.5,-30 63.5,-24 63.5,-24 63.5,-12 63.5,-12 63.5,-6 69.5,0 75.5,0 75.5,0 105.5,0 105.5,0 111.5,0 117.5,-6 117.5,-12 117.5,-12 117.5,-24 117.5,-24 117.5,-30 111.5,-36 105.5,-36"/>
<text xml:space="preserve" text-anchor="middle" x="90.5" y="-14.3" font-family="Times New Roman,serif" font-size="11.00">OUT</text>
</g>
<!-- SCALE&#45;&gt;OUT -->
<g id="edge5" class="edge">
<title>SCALE&#45;&gt;OUT</title>
<path fill="none" stroke="black" d="M90.5,-71.7C90.5,-64.41 90.5,-55.73 90.5,-47.54"/>
<polygon fill="black" stroke="black" points="94,-47.62 90.5,-37.62 87,-47.62 94,-47.62"/>
</g>
</g>
</svg>
