<?xml version="1.0" encoding="UTF-8" standalone="no"?>
<!DOCTYPE svg PUBLIC "-//W3C//DTD SVG 1.1//EN"
 "http://www.w3.org/Graphics/SVG/1.1/DTD/svg11.dtd">
<!-- Generated by graphviz version 13.1.2 (20250808.2320)
 -->
<!-- Title: XAME_FFT_OFDM_Pipeline Pages: 1 -->
<svg width="378pt" height="572pt"
 viewBox="0.00 0.00 378.00 572.00" xmlns="http://www.w3.org/2000/svg" xmlns:xlink="http://www.w3.org/1999/xlink">
<g id="graph0" class="graph" transform="scale(1 1) rotate(0) translate(4 568)">
<title>XAME_FFT_OFDM_Pipeline</title>
<polygon fill="white" stroke="none" points="-4,4 -4,-568 373.62,-568 373.62,4 -4,4"/>
<g id="clust1" class="cluster">
<title>cluster0</title>
<polygon fill="none" stroke="gray" stroke-dasharray="5,2" points="46.62,-277 46.62,-354.5 320.62,-354.5 320.62,-277 46.62,-277"/>
<text xml:space="preserve" text-anchor="middle" x="183.62" y="-337.2" font-family="Times New Roman,serif" font-size="14.00">Stage Kernel (Butterfly r=2/4)</text>
</g>
<!-- legend_notes -->
<g id="node1" class="node">
<title>legend_notes</title>
<polygon fill="lightgray" stroke="black" points="310.25,-564 49,-564 49,-475 316.25,-475 316.25,-558 310.25,-564"/>
<polyline fill="none" stroke="black" points="310.25,-564 310.25,-558"/>
<polyline fill="none" stroke="black" points="316.25,-558 310.25,-558"/>
<text xml:space="preserve" text-anchor="middle" x="182.62" y="-549.55" font-family="Times New Roman,serif" font-size="11.00">X&#45;AME FFT/OFDM Execution Flow</text>
<text xml:space="preserve" text-anchor="middle" x="182.62" y="-536.05" font-family="Times New Roman,serif" font-size="11.00">Each stage = pipeline of GEMV kernels inside 256B tile</text>
<text xml:space="preserve" text-anchor="middle" x="182.62" y="-522.55" font-family="Times New Roman,serif" font-size="11.00">BFLY: Matrix&#45;Vector</text>
<text xml:space="preserve" text-anchor="middle" x="182.62" y="-509.05" font-family="Times New Roman,serif" font-size="11.00">TW: Element&#45;wise multiply</text>
<text xml:space="preserve" text-anchor="middle" x="182.62" y="-495.55" font-family="Times New Roman,serif" font-size="11.00">SHF: Reorder / stride / bitrev</text>
<text xml:space="preserve" text-anchor="middle" x="182.62" y="-482.05" font-family="Times New Roman,serif" font-size="11.00">All orchestrated by XMODE.OPS</text>
</g>
<!-- A -->
<g id="node2" class="node">
<title>A</title>
<polygon fill="white" stroke="black" points="0,-380.5 0,-416.5 145.25,-416.5 145.25,-380.5 0,-380.5"/>
<text xml:space="preserve" text-anchor="middle" x="34.25" y="-394.8" font-family="Times New Roman,serif" font-size="11.00">Input Tile A</text>
<polyline fill="none" stroke="black" points="68.5,-380.5 68.5,-416.5"/>
<text xml:space="preserve" text-anchor="middle" x="106.88" y="-394.8" font-family="Times New Roman,serif" font-size="11.00">FP16 (Re/Im)</text>
</g>
<!-- legend_notes&#45;&gt;A -->
<!-- B -->
<g id="node3" class="node">
<title>B</title>
<polygon fill="white" stroke="black" points="217.62,-380.5 217.62,-416.5 369.62,-416.5 369.62,-380.5 217.62,-380.5"/>
<text xml:space="preserve" text-anchor="middle" x="261.62" y="-394.8" font-family="Times New Roman,serif" font-size="11.00">Twiddle Factors</text>
<polyline fill="none" stroke="black" points="305.62,-380.5 305.62,-416.5"/>
<text xml:space="preserve" text-anchor="middle" x="337.62" y="-394.8" font-family="Times New Roman,serif" font-size="11.00">FP16/FP32</text>
</g>
<!-- legend_notes&#45;&gt;B -->
<!-- BFLY -->
<g id="node4" class="node">
<title>BFLY</title>
<polygon fill="lightgray" stroke="black" points="54.75,-285.5 54.75,-321.5 312.5,-321.5 312.5,-285.5 54.75,-285.5"/>
<text xml:space="preserve" text-anchor="middle" x="96.12" y="-299.8" font-family="Times New Roman,serif" font-size="11.00">{Small GEMV</text>
<polyline fill="none" stroke="black" points="137.5,-285.5 137.5,-321.5"/>
<text xml:space="preserve" text-anchor="middle" x="225" y="-306.55" font-family="Times New Roman,serif" font-size="11.00">2x2 or 4x4 Complex MAC}</text>
<text xml:space="preserve" text-anchor="middle" x="225" y="-293.05" font-family="Times New Roman,serif" font-size="11.00">OPS: ksel=BFLY_R2/R4, radix=2/4</text>
</g>
<!-- A&#45;&gt;BFLY -->
<g id="edge3" class="edge">
<title>A&#45;&gt;BFLY</title>
<path fill="none" stroke="black" d="M93.5,-380.01C110.64,-365.65 135.1,-345.16 154.21,-329.14"/>
<polygon fill="black" stroke="black" points="156.26,-331.99 161.68,-322.89 151.77,-326.63 156.26,-331.99"/>
</g>
<!-- B&#45;&gt;BFLY -->
<g id="edge4" class="edge">
<title>B&#45;&gt;BFLY</title>
<path fill="none" stroke="black" d="M272.93,-380.01C255.96,-365.65 231.72,-345.16 212.77,-329.14"/>
<polygon fill="black" stroke="black" points="215.27,-326.67 205.38,-322.89 210.75,-332.02 215.27,-326.67"/>
</g>
<!-- TW -->
<g id="node5" class="node">
<title>TW</title>
<polygon fill="white" stroke="black" points="50.62,-190.5 50.62,-226.5 316.62,-226.5 316.62,-190.5 50.62,-190.5"/>
<text xml:space="preserve" text-anchor="middle" x="98.75" y="-204.8" font-family="Times New Roman,serif" font-size="11.00">Complex Multiply</text>
<polyline fill="none" stroke="black" points="146.88,-190.5 146.88,-226.5"/>
<text xml:space="preserve" text-anchor="middle" x="231.75" y="-204.8" font-family="Times New Roman,serif" font-size="11.00">OPS: TWIDMUL / CMUL_CONJ</text>
</g>
<!-- BFLY&#45;&gt;TW -->
<g id="edge5" class="edge">
<title>BFLY&#45;&gt;TW</title>
<path fill="none" stroke="black" d="M183.62,-285.01C183.62,-271.89 183.62,-253.64 183.62,-238.37"/>
<polygon fill="black" stroke="black" points="187.13,-238.43 183.63,-228.43 180.13,-238.43 187.13,-238.43"/>
</g>
<!-- SHF -->
<g id="node6" class="node">
<title>SHF</title>
<polygon fill="white" stroke="black" points="67.62,-95.5 67.62,-131.5 299.62,-131.5 299.62,-95.5 67.62,-95.5"/>
<text xml:space="preserve" text-anchor="middle" x="183.62" y="-116.55" font-family="Times New Roman,serif" font-size="11.00">Shuffle / BitReverse / Transpose</text>
<text xml:space="preserve" text-anchor="middle" x="183.62" y="-103.05" font-family="Times New Roman,serif" font-size="11.00">OPS: flags=BITREV / TRANSPOSE / stride_tpl</text>
</g>
<!-- TW&#45;&gt;SHF -->
<g id="edge6" class="edge">
<title>TW&#45;&gt;SHF</title>
<path fill="none" stroke="black" d="M183.62,-190.01C183.62,-176.89 183.62,-158.64 183.62,-143.37"/>
<polygon fill="black" stroke="black" points="187.13,-143.43 183.63,-133.43 180.13,-143.43 187.13,-143.43"/>
</g>
<!-- OUT -->
<g id="node7" class="node">
<title>OUT</title>
<polygon fill="white" stroke="black" points="70.12,-0.5 70.12,-36.5 297.12,-36.5 297.12,-0.5 70.12,-0.5"/>
<text xml:space="preserve" text-anchor="middle" x="98.38" y="-14.8" font-family="Times New Roman,serif" font-size="11.00">Output C</text>
<polyline fill="none" stroke="black" points="126.62,-0.5 126.62,-36.5"/>
<text xml:space="preserve" text-anchor="middle" x="211.88" y="-21.55" font-family="Times New Roman,serif" font-size="11.00">FP32 (Re/Im pair)</text>
<text xml:space="preserve" text-anchor="middle" x="211.88" y="-8.05" font-family="Times New Roman,serif" font-size="11.00">POST: ABS / ABS2 / CAST_OUT</text>
</g>
<!-- SHF&#45;&gt;OUT -->
<g id="edge7" class="edge">
<title>SHF&#45;&gt;OUT</title>
<path fill="none" stroke="black" d="M183.62,-95.01C183.62,-81.89 183.62,-63.64 183.62,-48.37"/>
<polygon fill="black" stroke="black" points="187.13,-48.43 183.63,-38.43 180.13,-48.43 187.13,-48.43"/>
</g>
</g>
</svg>
